<?xml version="1.0" encoding="UTF-8"?><svg xmlns="http://www.w3.org/2000/svg" width="200" height="200" viewBox="0 0 200 200" shape-rendering="geometricPrecision" text-rendering="geometricPrecision" image-rendering="optimizeQuality" fill-rule="evenodd" clip-rule="evenodd"><defs><style>.fil2{fill:#1591b5}.fil0{fill:#fdfefe}.fil1{fill:#fff}</style></defs><g id="图层_x0020_1"><g id="_-2101381056"><path class="fil0" d="M97.17 32.24c5.3-.24 10.76.22 15.72 1.17 9.01 1.72 16.66 5.01 24.12 9.75 16.11 10.25 29.84 30.1 30.76 53.97 1.47 38.52-28.37 69.04-64.92 70.63-5.35.24-10.79-.23-15.74-1.17-8.98-1.71-16.67-5.03-24.11-9.76-1.81-1.15-3.34-2.3-4.95-3.56-8.22-6.42-14.12-14.07-18.96-23.42-1.83-3.56-3.49-8.13-4.6-12.31a68.096 68.096 0 0 1-2.25-14.71c-.47-10.44 1.44-19.4 5.08-28.75 1.55-3.98 3.75-7.78 5.85-11.08 3.08-4.84 8.35-10.91 12.93-14.69l3.53-2.81c10.91-8.04 23.68-12.65 37.54-13.26zm.39-1.89c-2.81.22-5.18.32-7.92.72-2.47.37-4.91.86-7.24 1.47-8.98 2.37-16.32 6.02-23.57 11.23-3.02 2.17-5.6 4.47-8.2 7.07-.35.35-.75.7-1.1 1.07-4.93 5.23-10.37 12.63-13.77 21.02-3.61 8.89-5.98 19.35-5.42 29.31.31 5.54.86 10.15 2.17 15.19 2.54 9.8 6.96 18.43 13.06 26.1 10 12.56 24.07 21.3 40.54 24.77 10.24 2.16 21.17 1.73 31.2-.84 9.7-2.49 18.47-7.08 26.03-13.11 1.94-1.55 3.97-3.41 5.73-5.17l3.11-3.34c.7-.77 1.34-1.53 2-2.36 3.76-4.8 7.4-10.46 9.76-16.41 3.64-9.15 5.78-18.18 5.42-29.36-.47-14.46-5.38-27.93-13.34-38.78-3.39-4.62-8.21-9.75-12.73-13.33-.82-.65-1.62-1.27-2.47-1.89-8.13-5.94-17.22-9.98-27.22-12.03-4.54-.92-11.22-1.7-16.04-1.33z"/><path class="fil0" d="M53.92 96.11l19.35.1c-.13.41-1.08 1.79-1.37 2.27-1.26 2.01-10.23 16.1-10.34 16.58h15.92l9.58-16.17c.34-.56.63-1.08.96-1.63.59-.99.47-.79.46-2.14l-.06-7.79c0-.61.21-2.04-.1-2.44-.22-.21-26.92-.16-30.12-.19-1.27-.01-3.03-.12-4.24-.01l-.04 11.42zM47.75 67.22c1.61.59 3.39 1.35 5.03 2.01.78.32 4.61 1.99 5.16 2.01 1.62-1.84 2.88-2.85 5.48-3.77 5.63-1.99 13.99-1.64 18.92 1.69 1.22.82 1.46 1.22 2.4 2.27.61-.11 9.54-3.95 9.72-4.14l-20.2-8.41c-.6-.25-2.5-1.17-2.97-1.09-.64.09-2.35.8-3 1.05l-19.84 7.99c-.31.11-.49.14-.7.39z"/><path class="fil0" d="M83.93 79.34c-1.2 2.98-9 3.8-13.11 3.75-2.53-.03-5.21-.34-7.43-.98-7.15-2.07-5.24-5.45 1-6.91 4.46-1.06 10.64-.99 15.09.25 1.59.45 5.27 1.84 4.45 3.89zm-13.92-12.3c-4.81.34-8.57 1.57-11.55 4.92-.73.82-.56.68-.57 2.18 0 .94 0 1.87.01 2.81.01 2.48-.22 2.95 1.35 4.2 4.34 3.47 17.28 3.72 22.65.95.95-.49 2.61-1.56 2.86-2.61.16-.67.08-4.5.07-5.45-.03-1.32.1-1.27-.54-2.15-2.62-3.61-9.8-5.16-14.28-4.85zM67.54 130.52c.26-.69 1.41-2.07 1.5-2.66-3.79-.07-7.61-.04-11.41-.06-.97 0-1.94.01-2.91-.01-.87-.01-1.08-.18-1.86.98-.3.45-.22 4.47-.14 5.35l36.44-.03.17-3.6-21.79.03zM52.73 142.02l36.23-.02v-3.97c-.85-.12-7.64-.04-9.11-.04-3 0-26.33-.14-27.15.06l.03 3.97zM56.01 123.83l15.71.02c.39-.58 2.54-4.2 2.69-4.69H60.02c-1.47-.01-1.15.21-1.79 1.16l-2.22 3.51zM103.45 156.91c-.05-1.06-.1-3.17.59-3.76.55-.47 1.24-.14 1.51.28.53.81.71 4.8-.25 5.56-.57.46-1.2.13-1.47-.31-.26-.45-.34-1.16-.38-1.77zm5.08.41c.84-7.26-4.58-6.64-6.25-5.51-.85.59-1.25 1.54-1.41 2.98-.85 7.61 4.95 6.57 6.31 5.56.82-.62 1.19-1.64 1.35-3.03zM94.49 153.03c1.49-.75 1.67 1.68 1.7 2.52.03 1.11.08 3.16-.84 3.56-1.41.61-1.63-1.39-1.67-2.51-.04-1.18-.14-3.09.81-3.57zm4.3 4.08c.74-7.23-4.86-6.36-6.39-5.21-1.91 1.43-2.3 8.35 1.5 9.03 3.26.58 4.59-.96 4.89-3.82zM83.92 154.41c.56-2.35 2.07-1.23 2.26-.92 1.26 2.03-4.97 3.49-5.06 7.36 1.44.02 6.9.1 7.92-.06l-.02-2.09-4.01-.01c.34-.54 1-.93 1.54-1.32 4.69-3.34 2-6.96-2.67-6.11-1.64.29-2.37 1.25-2.59 2.95l2.63.2zM113.08 154.03c.25-.44.26-.89.7-1.1 1.51-.71 2.43 1.92-.06 1.94l-.12 1.84c.75-.11 1.33-.25 1.79.28.74.85.14 2.86-1.4 2.33-.55-.2-.7-.69-.84-1.34l-2.6.34c-.01 1.06 1.12 2.08 1.94 2.4 1.1.42 2.9.41 3.97-.03 2.1-.86 2.57-3.83.85-4.79-.17-.1-.2-.09-.36-.17l-.28-.15c-.01-.04-.05-.03-.07-.05 2-1.07 1.6-3.68-.82-4.23-2.35-.53-4.78.25-5.09 2.28.42.23 1.85.44 2.39.45zM30.03 138.63c.32-.81-.21-1.53-.81-1.69-1.43-.41-4.54 1.78-4.96 2.8-.41.99.28 2.65 2.88 1.32.99-.5 2.53-1.53 2.89-2.43zM166.45 143.05c-1.33.49-1.03 1.92.58 3.11 3.81 2.82 4.94.93 4.46-.31-.44-1.17-3.71-3.28-5.04-2.8zM48.17 69.78v2.81c0 1.24 1.42 1.37 1.42 0v-2.91c0-1.18-1.42-1.4-1.42.1z"/><path class="fil0" d="M48.63 73.82c-.73.2-1.19.69-1.04 1.65.12.7.79 1.27 1.71 1.06 1.66-.4 1.04-3.19-.67-2.71zM141.76 32.36c-.61-.42-1.4-.4-2.2-.07-.81.34-.84.82-.47 1.73.35.88 1.22.31 1.74-.04.66-.46 1.14-.51.93-1.62zM113.6 19.01c-.85-.27-3.58 1.21-2.46 2.56.51.61.57.33 1.42-.7.32-.41 1.14-1.11 1.04-1.86zM71.2 173.98c-.13.61-.97 2.54-.97 2.68.01.21-.18.16.28.29.2.06.41.05.61.01.93-.2 1.93-2.55.08-2.98zM48.18 83.05c.46-.5.23-3.22.24-4.44 0-.58.07-1.01-.24-1.39-.07.09-.07.04-.13.2-.18.44-.11 2.24-.11 2.75 0 .77-.24 2.38.24 2.88zM49.74 83.05c.4-.54.36-5.3 0-5.82-.13.11-.05-.03-.15.19-.08.16-.07.14-.09.35l-.02 2.4c0 .4-.05 2.32.08 2.65.09.21.06.13.18.23zM140.19 30.31c.46-.05 2.04-.75 1.96-1.85-.36 0-1.42.19-1.74.31-.71.27-.52.96-.22 1.54zM158.55 52.23c-.26.26.16 1.28.29 1.49.3.47 1.02.52 1.37.15.75-.77-.16-.75-.57-.95-.41-.19-.67-1.1-1.09-.69zM86.32 24.32c-.14 1.03 2.68 1.57 2.05-.2-.56-.26-.41.02-.87.14-.51.14-.6-.11-1.18.06zM39.43 46.28c.11-.4-.11-.88-.46-1.05l-1.04-.57c.08.9.71 1.68 1.5 1.62z"/><g><path class="fil1" d="M92.85 179.94c-.84-1.77-.85-.88-1.13-1.44.29-.19 3.38.02 3.78.21-.12.34-.17.14-.55.34-.02.48.96 2.49 1.2 2.97.23-.18 1.61-2.12 1.57-2.81-.6-.23-.53-.1-.67-.44.4.01 1.51.03 1.88.17l-.32.36c-.41.27-1.52 2.28-1.82 2.75-.44.7-.35 1.2-.42 2.16-.09 1.31.04 1.2.52 1.46.41.22.18-.13.29.31-.66.02-3.59-.13-4.05-.31.3-.72.86.44 1.01-1.69.1-1.41.09-1.11-.43-2.2-.29-.63-.56-1.22-.86-1.84zm18.75-1.95l-3.13 7.09c.85-.06 1.94-.08 2.57-.52 1.05-.72.67-1.65 1.11-1.87.24.37.08 1.87.07 2.46l-6.39.64 3.13-7.08c-2.24.16-2.41.2-2.86 1.52l-.18.36c-.2-.25-.16-.64-.17-.98-.02-.37-.06-.68.02-1.04l5.83-.58zm-31.76 5.6c.77-.41.89.2 1.18-1.23l.78-3.99c.29-1.58-.34-.94-.64-1.71.89.12 1.78.33 2.64.5 2.29.44.58.39 2.43.58 1.75.17 3.61.31 5.34.57-.02.52-.01 1.48-.29 1.83-.57-.61.21-1.53-1.87-1.58-.14.26-.07.09-.14.43l-.33 3.22c-.05.54-.19 1.36-.19 1.91 0 1.05.65.65.8 1.13-.25.14-3.8-.24-4.06-.41.24-.51.8.22 1.02-1.04.09-.56.13-1.19.19-1.77.13-1.22.32-2.52.37-3.75-.51-.03-1.07-.12-1.49.14-.6.36-.23.79-.74 1.03-.18-.4.04-1.22.06-1.75-.89.1-.8.57-.97 1.45-.13.65-.25 1.27-.38 1.92-.11.61-.28 1.32-.37 1.91-.23 1.45.58.83.63 1.52-.67-.08-1.42-.26-2.09-.39-.6-.11-1.71-.22-1.88-.52zm-5.41-3.61c.01.03.03.06.03.1.09.29.02.49.22 1 .43 1.03 1.74 1.93 2.79 1.48 1.76-.74-1.32-2.81-1.72-3.18-1.27-1.18-1.06-3.15.74-3.7 1.72-.52 2.93.73 3.39.95.71.35.32-.24.85-.24.04.4-.14.78-.25 1.2-.09.34-.11.85-.42 1.02-.39-.74.05-1.25-1-2.02-.49-.36-1.61-.74-2.08-.13-.78 1.03 1.64 2.06 2.43 3.11 1.09 1.47.11 3.3-1.44 3.6-1.6.31-2.55-.6-3.34-1.01-.72-.38-.38.11-1.02.17.03-.44.47-2.26.74-2.52l.08.17zm41.68-2.83c.58-.25 2.6-.38 3.19-.54.92-.24-.12-.13.67-.46.43-.18 3.44-.96 3.66-.86-.16.59-.93.12-.53 1.61.19.68.35 1.28.53 1.96 1.11 4.25.72 2.5 1.8 3.18-.21.3-1.57.56-1.93.65-.39.1-.73.19-1.07.29-.35.09-.67.25-.95.09.38-.58.91-.17.54-1.56l-.95-3.51c-.17-.67-.24-1.24-.72-1.49l-.46.29c-.39.25-.18-.03-.4.34-.3.6.24 2.84.36 3.64.33 1.99.12 2.2 1.04 2.58.32.13.2-.09.29.23-.58.2-3.7.75-4.03.49l.71-.46c.13-.83-.15-2.12-.31-2.95l-2.15.35c.33 3.29.49 2.75 1.39 3.09-.09.34.25.11-.32.27-.16.04-.4.05-.54.07-.86.13-2.73.6-3.14.39.51-1.06 1.07 1 .36-3.57-.55-3.46-.22-2.77-1.44-3.28.16-.28-.2-.11.37-.25l1.56-.24c.7-.11 1.38-.25 2.09-.3-.22.59-.37.2-.64.61-.14.22-.12.54-.08.84.07.6.18 1.21.3 1.83l2.13-.32c-.01-.5-.17-2.39-.64-2.66-.16-.09-.25-.06-.4-.12-.31-.12-.2.07-.29-.23zm13.29-3.75c.25-.36.07-.4.4-.51.19.38.8 1.87.63 2.17-.36-.14-.6-.8-1.23-1.04-.65-.25-1.41-.07-1.84.28-1.43 1.18.15 5.72 1.94 5.83.69.05 1.19-.31 1.54-.69.78-.84.3-1.22.94-1.23.41.56-.72 2.36-2.71 2.79-3.27.71-5.66-3.33-3.75-6.04 1.06-1.5 2.7-1.45 4.08-1.56zm-60.69.92c.57-1.45-.03-1.24-.32-1.73.47-.23 4.56 1.62 4.8 1.77 1.81 1.11 1.63 3.39-.88 3.56.01.64.21 1.54.32 2.22.04.31.09.76.19 1.04.16.41.36.41.45.73-.57.08-1.91-.63-2.53-.85-.17-.81-.26-3.32-.65-3.79-.27.21-.27.43-.42.81-1.07 2.87-.17 1.6.12 2.55l-3.47-1.25c-.28-.13-.21-.07-.42-.25l.36-.11c.28-.06.43.03.67-.25.25-.29 1.54-3.82 1.78-4.45zm-8.14 2.29c-.64-.3-1.22-.45-1.21-.73.03-.01.07-.01.09-.01l.17-.01c.82-.04.73 0 1.24-1.08l1.62-3.47c.14-.29.33-.62.27-1-.11-.73-.44-.21-.42-.85l5.68 2.71-.58 1.38c-.32.5.07.16-.4.32.12-1 .17-1.42-.5-1.88-.39-.26-1.08-.62-1.54-.74-.22.46-1.06 2.12-1.12 2.56 1.54.48 1.33-.6 1.95-.77.05.43-.46 1.32-.64 1.69-.2.42-.5 1.27-.8 1.48-.36-.55.65-1.47-.72-1.96-.29.3-1.12 2.09-1.12 2.59.4.45 1.17.82 1.94.8 1.18-.04 1.19-.95 1.86-.87-.23.45-.99 1.57-1.33 1.87-.63-.18-3.47-1.58-4.44-2.03zm73.47-5.54c.1-.28.04-.17.25-.33l2.64-1.1c.48-.23.2-.12.47-.37.27-.24.67-.41 1.04-.61l4.34-2.38c.27.26.88 1.35.93 1.73-.67-.09-.59-.89-1.72-.67-.53.1-1.2.56-1.72.82l1.35 2.44c1.33-.51.43-1.5.64-2 .39.22 1.66 2.67 1.7 3.06-.94-.32-.44-1.13-2.05-.68.17.62 1.08 2.15 1.42 2.5.67-.02 1.43-.62 1.74-.99.59-.7.11-1.61.41-2.09.34.22.76 1.77.83 2.18-.8.31-1.98 1.08-2.82 1.54-.56.3-2.31 1.36-2.75 1.46-.01-1.07 1.32.3-.76-3.3-.44-.77-1.4-2.93-1.97-2.89-.14.01-1.05.36-.48 1.7.25.59.51 1.17.78 1.82 1.75 4.32 1.42 2.26 2.21 3-.42.26-3.33 1.51-3.75 1.55.09-.52-.04-.08.24-.36.19-.19.17.01.26-.38.14-.62-.62-1.72-.9-2.72-.71.1-1.36.58-2.04.75.09.58.48 1.3.71 1.85.55 1.35.74.57 1.4.97-.18.29-3.26 1.55-3.73 1.66.04-.73.9-.28.24-1.8l-1.55-3.64c-.48-1.12-.32-.88-1.45-1.02.06-.28-.01-.17.32-.33.61-.28 3.15-1.38 3.4-1.34.11.51-.88.18-.31 1.56.21.49.52 1.12.66 1.63.62-.14 1.62-.53 2.03-.87-.13-.49-.41-1.06-.63-1.57-.33-.78-.4-.84-1.38-.78zm-77.35 1.72c-.58.44-1.27 1.17-1.62.94-.21-.21-.04.08-.13-.24l.02-.55c.04-.28.09-.56.13-.83.13-.95.8-5.33.74-5.74-.06-.48-.2-.35-.28-.61-.2-.63 3.13 1.55 3.22 1.74-.38.19-.17-.12-.8.02-.28.56-.62 3.38-.66 4.14.33-.16.74-.52 1.04-.74 3.28-2.49 1.95-1.55 1.76-2.71.42.11 1.72.79 1.87 1.17-1.23.13-1.19.27-1.99.89l-3.3 2.52zm90.76-9.94c.11-.44 1.71-1.44 1.89-1.38.16.47-.89.33.13 1.73l3.16 4.61c-.69.65-.83.39-1.77.13-1.33-.36-5.01-1.51-5.87-1.59l2.53 3.68c.57.71 1.03.15 1.26.29.22.21-.13.3-.76.75-.27.19-.75.57-1.05.65-.04-.77.9-.32-.22-1.96l-2.23-3.17c-.84-1.24-1.09-.37-1.6-.66.19-.37 1.09-.87 1.5-1.16.83-.6.72-.69 1.88-.36 1.14.32 3.05.98 4.16 1.13-.24-.53-.84-1.28-1.21-1.81-.73-1.04-.5-1.03-1.8-.88zm11.24-.86c-.5 2.08-4.22 5.4-7.08 2.19-.98-1.1-1.51-2.83-.48-4.43 1.53-2.37 2.74-1.21 3.1-2.5l.08-.24 1.33 1.75c-.2.2-.47-.39-1.43-.44-2.73-.14-2.67 3.31.43 5.52 1.06.76 2.16.61 2.56-.49-2.2-2.42-1.13-1.57-2.44-1.5-.01-.42.31-.49.58-.7l1.46-1.24c.13-.11.25-.25.39-.34.31-.19.29-.09.35-.07.1.41-.53.48.25 1.4.27.31.64.73.9 1.09zm-117.16 1.33c.4.09.61.32 1.04.13.38-.18 2.75-3.11 3.15-3.61 1.02-1.31.49-.96.26-1.83.53.1 2.41 1.87 2.42 1.91l-.05 5.23c.39-.21 1.17-1.27 1.46-1.63 1.13-1.39.7-1.05.39-1.91.37-.06.4.11.71.36 1.03.85 4.25 2.8 4.44 3.27-.71.2-.66-.69-1.66.7-.38.52-.74 1.04-1.11 1.59-.38.55-.72 1.04-1.12 1.58-1.03 1.42-.1 1.15-.18 1.89l-3.01-2.03c-.4-.29-.24-.03-.31-.45 1.19.2 1.03.19 1.68-.71.36-.5.7-.99 1.07-1.53.89-1.33 2.22-2.6 1.22-3.16-.89-.49-1.22.11-1.63.58-.55.63-3.2 3.91-3.57 4.17-.27-.25-.39-.22-.58-.58l.01-7.21c-.19.29-.65.76-.9 1.07-.34.41-.63.71-.96 1.12-1.99 2.49-1.12 1.39-.94 2.59-.38.04-.71-.39-1.03-.65-.69-.56-.73-.48-.8-.89zm2.74-7.31c.18.08 1.56 1.33 1.64 1.73-.52-.09-.72-.44-1.31-.06l-2.4 2.38c-1.38 1.56-2.84 1.47-4.23 0-2.3-2.42-.25-3.71 1.87-5.79 1.44-1.41.67-1.19.65-2.03.2.09 2.86 2.58 2.88 2.97-.42-.04-.49-.38-1.01-.19-.35.13-1.78 1.66-2.09 1.97-.6.59-2.64 2.05-1.29 3.3 1.56 1.44 3.27-.97 4.8-2.49 1.28-1.27.35-.96.49-1.79zm123.3-5.23c-.05-.46-.22-.52.14-.72.27.1.24.06.31.51.04.22.05.51.04.73-.01.47-.11.83-.27 1.22-1.93 4.56-8.79 1.37-7.04-2.88.54-1.3 1.3-1.68 2.13-2.23.69-.46.07-.4.36-.89.25.11.28.16.49.34.3.23 1.15.87 1.24 1.19-.32.05-2.41-.9-3.03.91-.64 1.85 2.95 4.68 4.51 4.09.48-.18.89-.66 1.05-1.23.09-.33.11-.68.07-1.04zm.19-9.34c2.23-.68 4.43 1.23 4.75 2.98.4 2.22-1.4 4.32-2.97 4.76-2.26.65-4.46-1.19-4.79-2.91-.36-1.86.91-4.19 3.01-4.83zm-132.73 3.87c.37.06 1.39 1.6 1.39 1.9-.77-.1-.36-.94-2.06.33-2.5 1.87-4.09 3.46-6.04.88-2.18-2.89.43-3.92 2.55-5.5 1.3-.98 1.2-.75.99-1.92.37.08.18-.05.45.31.42.53 2 2.67 2.05 3.02-.5-.07-.36-.42-1.01-.32-.36.05-2.09 1.39-2.44 1.64-1.12.81-2.77 1.63-1.71 3.03 1.27 1.68 3.34-.45 5.11-1.7 1.33-.93.68-1.03.72-1.67zm-8.44-10.04c2.25-.41 3.97 1.67 4.38 3.43.55 2.34-1.38 4.18-3.25 4.48-2.33.39-4.09-1.68-4.46-3.52-.47-2.34 1.41-4.04 3.33-4.39zm141.13 4.99c.03-.41 1.59-3.48 1.85-3.66.36.46-.41.8.74 1.4.89.46 4.4 2.46 4.88 2.18.39-.51.65-1.21.26-2.04-.43-.92-1.14-.98-1.02-1.4.31-.08.83.4 1.19.62.37.24.76.47 1.13.75-.11.56-1.01 2.12-1.32 2.74-.26.51-.44.86-.71 1.37-.34.65-.42 1.08-.82 1.21.14-1.18-.16-1.16-1-1.59l-3.44-1.75c-1.4-.73-1.18.08-1.74.17zm9.23-2.8c-.27-.53.33-.8-.57-1.28l-4.17-1.95c-1.2-.55-1.02.05-1.47.25-.43.19.17-.84.27-1.06.21-.44 1.04-2.5 1.34-2.64.26.41-.18.82.43 1.22l3.73 1.77c.54.24 1.95 1.14 1.96-.76.01-1.38-1.22-1.63-1.34-2.31.41.09 2.14 1.12 2.42 1.39-.12.49-1.49 3.3-1.89 4.14-.31.66-.37 1.08-.71 1.23zM18.9 129.18c.48.18.15.5.83.55.53.03 3.87-1.38 4.61-1.65 1.51-.55.76-.9 1.1-1.4l.15.17c.01.02.03.04.04.06.29.51 1.33 3.42 1.27 3.58-.82-.17.15-1.24-3.22.27l.72 1.98c.5-.04 1.26-.39 1.74-.58.81-.33.84-.4.77-1.3.4.04.42.45.57.85.24.64 1.14 2.65.97 2.96-.72-.34-.2-.94-1.85-.28l-3.61 1.38c-1.53.57-.63.84-1.08 1.39-.26-.27-1.42-3.3-1.48-3.83.56.15.27.41.77.53.63.16 1.65-.58 2.77-.83l-.79-2.07c-.62.15-1.22.44-1.83.67-1.45.57-.6.73-1 1.37-.26-.16-.11.02-.29-.42-.26-.62-1.28-3.1-1.16-3.4zm154.2.05c-.17-.35.71-2.44.91-2.99.24-.69.76-2.5 1.07-2.98.36.05.61.17.97.29 1.08.36.69.17.8.44-.81.32-1.13-.28-1.73.67-.29.45-.61 1.14-.55 1.72l2.59.83c.1-.52.13-.86-.16-1.2-.17-.19-.21-.17-.42-.3-.36-.23-.25-.06-.36-.37.32-.15 3.17.89 3.28 1.13-.53.36-1.41-.56-1.9.93.47.23 2.21.86 2.75.81.32-.5.71-1.38.51-2.22-.19-.74-1.63-1.68-.8-1.46l1.78 1.02c-.13.77-.73 2.23-1.01 3.05-.17.5-.33.95-.51 1.47-.14.42-.29 1.09-.57 1.42-.02-.02-.03-.06-.04-.08-.22-.66.02-.63-.33-.92-.18-.15-.61-.29-.87-.38-.59-.19-1.24-.43-1.85-.64-4.35-1.48-2.48-.57-3.56-.24zm10.26-11.54c1.48 7.59-7.12 7.46-7.48 2.67-.14-1.9.76-2.6 1.07-3.24.33-.67-.08-.41-.18-.89.4 0 .83.16 1.25.26 1.04.25.88.12.95.44-.6.2-.88 0-1.49.43-1.2.85-1.32 2.5.48 3.43 1.19.61 5.09 1.82 5-1.09-2.79-1.02-2.55-.18-2.9.15-.1-.14-.25.13.04-.91.22-.8.45-2.41.79-2.65.02.03.03.06.04.08.49 1.07.02.6 2.43 1.32zm-5.37-8.56l1.93.32c-.22.63-1.77-.51-1.86 2.8.5.27 2.06.39 2.76.46.06-1.74-.92-1.05-1.27-1.7.23-.15.48-.07.85-.01.47.07 2.39.18 2.57.53-.78.46-1.51-.24-1.67 1.25.75.12 2.09.38 2.82.3.3-.57.44-1.61.12-2.3-.37-.8-1.23-.89-1.32-1.29.52-.09 1.62.44 2.2.61 0 .54-.75 5.98-.9 6.27-.61-.22.39-.83-1.26-1.08-.71-.11-1.38-.2-2.11-.3-4.12-.58-2.67-.39-3.59.42l.73-6.28zm-156.2 3.13c.14.99.21 1.63.43 2.59.12.53.61 2.01.42 2.39-.65-.35 0-.96-1.78-.54-2.7.64-5.23.66-4.6 2.66.47 1.49 2 1.09 3.45.76 2.11-.48 3.05-.37 3.2-1.59 0-.04.02-.06.04-.08l.23.53c.05.18.07.32.11.51.08.37.16.67.22 1 .29 1.42 1.54 4.16 1.91 5.84l-7.58-1.46c.23 1.13.69 2.54 1.89 2.85.2.05.38.05.63.06.41.02.45 0 .62.15l-2.42.54-2.02-6.01 7.58 1.48c-.68-3.22-1.82-2.15-2.49-2.55.15-.37.9-.31 1.63-.62-.12-1.05-1.22-.69-2.05-.5-2.72.64-4.92 1.6-5.7-1.62-.81-3.32 1.62-3.4 4.39-4.03 1-.23 1.7-.17 1.71-1.24-.45.02-1.29.27-1.63.12.08-.38.21-.24.61-.49.93-.57.61-1.57.47-2.67l-2.76.38c-.04 1.38.89 1.1 1.55 1.43-.1.24-.09.23-.75.31-.72.08-2.12.43-2.46.21.27-.66 1.36-.08 1.16-1.81-.43-.05-1.58.14-2.05.22-1.49.25-.62.82-1.26 1.1-.1-.63-.66-3.67-.47-4.05 1.03.4-1.09 1.1 3.65.42 3.33-.48 2.76-.16 3.2-1.37.29.08.08-.08.22.19l.7 4.89zm75.33-84.05c5.17-.39 11.76.32 16.62 1.26 11.48 2.22 21.87 7.13 30.8 14.15 1.43 1.12 3.56 2.94 4.77 4.16 3.41 3.46 5.45 5.32 8.51 9.56 8.62 11.92 13.05 24.04 13.97 39.89.64 11.05-1.94 21.66-5.48 30.46-2.41 6.01-7.63 14.68-12.06 19.4l-1.07 1.2c-5.26 5.93-13.01 12.11-21.77 16.35-9.69 4.68-17.86 6.43-28.78 7.15-10.14.67-22.2-1.9-30.47-5.43-9.22-3.94-15.85-8.61-21.8-14.12l-6.53-7.07c-9.63-11.7-15.14-26.39-15.93-42.42-.74-15.05 3.91-30.32 11.71-42.16 1.44-2.17 5.85-8.09 7.95-10.02 1.62-1.5 2.88-3.02 4.61-4.43.83-.67 1.54-1.35 2.41-2.05 7.67-6.22 16.93-10.99 26.82-13.57 6.36-1.66 9.3-1.82 15.72-2.31zm84.83 65.63c3.11-.46 5.47 1.87 5.86 4.44.46 3.05-1.85 5.58-4.46 5.93-3.13.42-5.55-1.84-5.93-4.48-.45-3.15 1.85-5.49 4.53-5.89zM16.8 93.81c3.02-.42 5.43 1.99 5.76 4.6.38 3.03-1.88 5.48-4.52 5.81-3.1.39-5.6-1.91-5.89-4.54-.35-3.24 1.88-5.47 4.65-5.87zm-1.34-21.33c-.02.15-.3.99-.4 1.27-.14.45-.44.6-.9.75-.6.18-.81.39-1.15.51-.23.09-1.77.18-.52-1.46.26-.35.41-.75.65-1.01.26-.28 1.56-.96 2.32-.06zm158.48 7.68c3.11 2.4 3.08.62 3.84.43.35.62.33 1.72-.05 2.22-1.12 1.48-4.49-.79-5.39-1.46-2.95-2.22.09-4.14-.84-5.5-.93-1.35-.63-.6-1.35-1.19.01-.71.84-1.11 1.29-1.43.96.64 2.41 1.36 3.66 1.57-.37-1.02-2.9-1.3-.44-2.74.65-.38.84-.39 1.35.01.55.42 1.94 1.2 2.7 1.24.27-.45.15-.7.41-1.06.56-.24 1.2.26 1.44.57.33.43.35 1.03.6 1.57.24.53.76.59 1.23.95 1.34 1.02 2.76.06 2.2-1.04-.23-.45-.65-.73-1.15-1.04l-5.1-3.52c-.52-.36-.94-.44-.46-1.31.26-.47.73-.47 1.13-.94.27-.31.2-.42.79-.28 1.53.35 4.08 2.37 5.14 2.4.18-.26.12-.13.18-.48.03-.19.04-1.12.65-1.22 2.13.37 2.1 4.76.11 4.58-1.16-.1-1.67-1.42-2.02-1.73-.68-.62-1.59-1.43-2.31-.95.12.35.41.41.7.58 1.48.91 4.01 3.43 3.98 5.21-.01 1.32-1.58 2.45-2.84 2.52-1.87.1-1.81-1.57-2.5-2.71-.98-.09-.72.62-1.58.33-1.25-.42-.49-.93-1.96-2-.35-.25-.81-.57-1.21-.71.02.5 1.02 1.25 1.68 1.91.38.38 1.66 1.5.74 2.17-.67.49-2.01-.37-2.76-.56l-2.67-.85c-.06 1.11-.15 1.75-.28 2.73-.11.91.6 1.35 1.09 1.73zM21.47 76.19c.12-.52-.08-.67-.2-1.11-.16-.61.04-.42.1-.96-.44-.42-.5-.66-.77-1.05-.22-.32-.6-.61-.86-.91-.51-.59-1.31-1.81-1.59-1.94-.24.44-.43.71-1.09.86-1.34.29.06-1.81-.09-2.69-.1-.57-.43-1.08-.47-1.42-.11-1.13 1.4-1.51 1.76.34.16.83.95 2.12 1.59 2.28.14-.49.32-1.02.58-1.36 1.06.02 2.03 1.66 3.04 1.77.8-1 .79-2.52 2.28-2.59 1.42-.07 2.52.97 3.31 1.56 1.14.86 2.07 1.45 2.27 2.63.11.67.33 1.58-.06 2.14-.33.48-.78.78-1.55.64.09.5.32.54.3 1.11-.92.09-.59-.72-1.46-.73-.24.56-.11 3.07-3.12.53 0-.92.9-.79.34-2-.29-.62-.43-1.38.22-1.81.81-.52 2.53 1.12 3.24 1.26 1.04.2.18-1.14-.04-1.63-.47-1.03-1.62-1.5-2.49-1.98-.53-.29-1.21-.35-1.45.36-.21.61-.2 1.29-.36 1.94-.45 1.92-2.09.29-2.47.02-.22-.15-.48-.29-.7-.45-.34-.23-.24-.33-.63-.39.02.87.39.57.96 2.02.31.78 2.11 1.57 3.14 2.69.8.89 1.31.76 1.38 1.55-.81.8-1.13.27-1.83-.16-1.35-.83-1.01-1.12-1.53-1.33-.37.63.1.6-.15 1.17-.14.33-.4.35-.58.92.48.81 3.1 1.12 3.38 2.4.2.95-.8 1.27-1.62 1.07-.68-.17-1.09-.81-1.81-.95.01.46.2.41.34.85.18.58.1.3.36.79.35.64-.14 1.33-.61 1.57-.47-.07-1.09-.53-1.54-.76-.71-.38-.56-.64-.69-1.59-.13-.94-.31-3.07-1.42-3.17-.28.62-.32 1.27-.97 1.61-.71.36-1.56.07-2.01-.26-.11-.74.39-1.19.53-1.83.43-1.92-1.16-4.57-.48-5.99 1.41-.37 1.91 1.36 2.82 2.54.65.86 1.33 2.97 2.7 2.44zm152.44-6.62c-.45.4-2.34 1.17-3.04 1.41-1.02.35-2.91.95-3.37-.16-.87-2.1 3.39-3.69 4.5-4.22 7.89-3.79 6.91-.93 8.62-1.55.6-.22.68-1.54 2.12-1.16.77.2.58 2.18.5 2.76-1.52.82-2.23.34-4.12.3l-.41-.64c-1.11.37.61.42-1.91.95-.77.16-1.35.35-1.99.7-1.38.76-3.19.66-3.82 1.72.81-.12 2.17-.68 2.92-.11zM34.77 53.96c.65-.27 1.26-.46 1.42-1.24.26-1.3-1.45-8.27-2.98-6.95-.24.21-.85 1.09-.72 1.88.2 1.23 2.09 2.69.74 3.48-.58-.01-.66-.27-.97-.52-.26.41.17.5.38 1.17.16.52.45.91.7 1.28.26.37.66.8.82 1.16.46 1.08-1.41.97-2.76-1.51-.36-.67-.4-2.34-.63-3.2-.27-1.04-.7-1.93-1.05-2.91-1.9-5.38.08-4.95.52-3.43.31 1.05.22 2.2 1.02 2.78.53-.32.13-.52.83-.68.55-.13.72-.07.77-.72-.36-.55-.85-.37-1.22-.94.19-1.2 1.61-1.01 2.36-.45 1.16.86.71-.23 2.97-.14.85.03.78-.27 1.36-.54 1.07-.48 3.46 0 4.47.49 1.34.65 3.36 2.25 3.96 3.32.47.83.53 2.04.08 2.94-.24.49-.58.58-1.02.85-.42.26-.62.6-1.14.56-.74-1.06.88-.87 1.18-1.97.59-2.15-1.43-3.37-2.91-4.29-.75-.46-2.04-.44-3.11-.52.22.58.99 1.21 1.42 1.9.33.53 1.03 1.74.16 2.19-2.15 1.13-3.9-.89-4.77-1.15.08.57.84 1.36 1.14 2.23.55 1.53.55 3.8-.61 5.18-.37.46-1.04 1.31-1.98 1.23-.27-.4-.46-.77-.43-1.48zm127.87-6.63c.7.22 2.04 1.29 2.55 1.7 1.11.88 4.02-.37 1.73-2.35-.97-.83-3.74-.81-5.38-.95-.87-.07-.92.24-1.56.55-.53.25-2.11.22-.66-2.02.75-1.19 2.07-.69 3.19-.71l6.23.08c.76-.13 2.18-.53 2.58-.93-.1-.29-.14-.3-.48-.46-1.12-.5-1.53.15-1.99.49-.52-.16-1.28-.87-1.45-1.29-.4-.97.78-3.57 2.03-1.42.51.9.38.89 1.27 1.43.57.36 1.3.5 1.74.96.41.41.88 1.34.36 1.93-.87 1.01-3.25 1.39-3.71 1.69.01.67.45 1.65.57 2.39.21 1.28-1.95 2.63-2.99 2.72-2.44.22-1.91-.34-2.39-.48-.55-.02-2.14.94-2.36 1.26 0 0 2.86 2.04 2.78 2.91-.19.47-.63.87-1.31.7-1.42-.34-1.06-.56-1.19-.92-1.17.25-1.57 2.55-4.21.38-1.28-1.05-1.49-1.78-.89-3.39.28-.74.02-.61-.16-1.13.14-.4.56-.78.9-.97 1.13.08 1.26.95 2.08 1.21.68-.81.27-.61 1.25-.96 1.1-.4-.12-1 .08-1.86.13-.55.77-.76 1.39-.56zm3.66-9.32c.37-.15.89.14 1.06.45.56 1.07-.49 3.38-1.46 3.12 0 0-1.79-1.01-1.34-1.93.25-.54 1.19-1.43 1.74-1.64zM40.6 36.52c.41-.14 2.11.24 2.59 1.08.37.64-.18.85-.22 1.45-.04.48.47 1.44-.26 1.34-.3-.05-.86-.72-1.02-.98-.38-.63-.31-.51-.95-.91-1.17-.74-1.3-1.58-.14-1.98zm23.27-4.05c-.26-.52-.23-1.12-.43-1.73-.22-.69-.7-.93.2-1.36.75-.35.72-.45 1.67-.31 1.81.27 2.16.39 2.54 1.72.31 1.1.03 1.09-.73 1.34-.74.25-.83.6-1.68.25-.93-.39-.78.05-1.57.09zm85.59-2.8c-.15-.22-.42-.41-.47-.71-.09-.65.63-.78.38-1.91-.1-.5-.65-1.45-.24-1.89.18-.2.18-.27.95.05 1.03.42 1.2.49 1.85 1.67.84 1.51.7 2.23-.34 3.42-.35.4-1.19.78-1.7.19-.19-.22-.23-.54-.43-.82zm-11.97-4.23c-.03-.67.3-1.01.57-1.4.56-.8.27-.67.42-1.58.09-.55.7-.67 1.31-.62 1.17.1 1.18 1.47 1.26 1.69.13.32.3.41.35.61.14.47-.4.98-.71 1.18-.81.51-.92.02-1.53.24-.27.09.18.09-.43.11l-1.24-.23zm-81.22 5.45c-.34-.03-.81.46-1.08.63-1.04.65-1.58-.37-1.92-1.19-.25-.57-.44-.89-.06-1.31.27-.31.65-.56 1.15-.73 1.57-.53 1.97-.04 2.23-1.39.5-2.54-1.31-3.99-1.22-5.82 2.35-1.85 3.55 2.21 3.67 3.57.11 1.13.52 1.33 1.41.7 2.14-1.5 2.56-3.14 4.52-3.58.74-.16 1.69-.36 2.03.32.31.65.39 1.83-.07 2.26-1.63 1.52-3.43 1.14-5.36 2.74-.64.52-2.12 1.95-2.45 2.95-.65 2 .67 4.24.5 4.64-.01.02-1.48 1.44-2.42.13-1.09-1.53-.24-2.33-.21-2.84.02-.49-.35-1.04-.72-1.08zm73.88-2.68c-.89-.54-1.24-.72-1.09-2.15.1-.98.69-1.76 1.68-1.24 1.23.64.99.49 2.59.4 1.2-.07 1.98-.1 2.86.48 1.86 1.21.3 3-.82 4.16-1.31 1.36-1.78.92-1.44 1.6.2.11-.05.09.29.06.28-.02 3.29-1.56 3.6-2.43 1.2-3.34 1.21-1.12 3.91-1.98.98-.31 1.38-3.71 1.5-4.94.04-.44.07-1.15.01-1.58-.07-.54-.18-.75-.67-.86-1.93-.45-.39-2.55 2.57-1.01.53.28.52.41.54 1.11.02.47 0 .99-.09 1.45-.21 1.15-1.22 3.87-.8 5.48.18.68.29.57.77.89.33.22.67.5.66.9-.03 1.28-2.33 1.27-2.49 2.31-.07.45.04 1.01.12 1.39.31 1.52-.72 1.63-.34 2.46l.35-.41c1.13-1.98.44-2.9 1.19-3.58.6-.53 1.53-.2 2.03.18.86.66-.44 2.57-1.03 3.73-.6 1.2-2.16 2.31-2.08 3.24.03.42.19 1.87.58 2.15.67-.54.06-2.3.83-2.91.85-.26 2.2 4.21.21 6.52-.56.01-1.21-.4-1.51-.69-.39-.39-.48-.92-.67-1.51l-1.12-3.14c-.65.16-.22.5-1.8.63-.83.07-1.46.06-1.47-.81.55-.85 2.19-.57 2.71-2.08-.77.02-1.23.77-2.34.67-.8-.07-1.82-.44-2.19-.88.06-.65.51-.95.71-1.59-.46.19-1.13.97-1.63.62-.58-.4-.35-1.31-.47-2.02-.29.03-2.02 1.4-2.43 1.7-.31.23-.84.73-1.38.67-1.74-.2-1.16-3.68-.6-4.53.46-.71 1.65-2 1.41-2.46-1.06-.3-1.76.54-2.66 0zm-8.76-6.2c-.33-.15-.6-.19-.93-.3-.75-.26-1.79-2.06-2.11-2.88-1.01-2.59 1.53-1.6 3.36.37.77.82.51.48.91 1.59.32.91.25 1.11-.4 1.63-.39-.08-.45-.23-.83-.41zM82.87 9.95c1.39-.56 2.72 2.84 1.24 2.99-1.17.13-1.79.19-1.91-.94-.12-1.18-.09-1.74.67-2.05zm31.92 13.46c-.61.43-2.17.56-2.1 1.58 4.18-.29 3.9-1.47 4.55-1.79 1.05.84.28 2.03-.3 2.67-.68.74-1.72.67-2.87 1.07-2.02.7-5.01 1.06-5.65-1.2-.37-1.33.74-1.05 1.73-2.1 1.07-1.13.41-1.43-.48-2.16-.93-.77-1.04-1.74-.17-2.74.58-.66 1.9-.96 2.42-1.5.09-.74-.26-1.2.16-1.73.56-.7 2.59-2.62 2.22-3.74-.83.01-1.21.89-1.83 1.11-.72.26-1.71-.48-1.92-.9-.44-.91 0-1.45.75-1.93.95-.6 1.32-.48 2.42-.2 1.02.27 1.46.26 2.14.87 2.56 2.29-1.45 4-1.56 5.79.15.17.92.72 1.21.81.7.21.83.04 1.11.75.41 1.05-.08 2.04-.48 2.85-.41.82-.68 2.01-1.35 2.49zM87.15 11.74c-.47.36-1.63.23-2 0-.66-.43-1.61-2.87.81-2.06 1.88.64 2.51-.69 3.93-.3 1.48.41.92 1.83.34 2.97-.25.48-.71 1-.8 1.48 2.32 1.53 2.61 1.04 2.31 3.16-.17 1.26-.75 1.98-1.62 2.62-.68.5-.96-.19-1.3.78l-.5 1.8c1.25-.12 2.66-.33 3.79.12.33 1.24-.84 1.62-1.27 1.67-.65.06-.11-.18-.65-.15-.44 2.26-.18 2.77-2.86 2.86-1.72.06-2.07-.96-2.46-1.79-.48-1.01-1.01.37-.87-1.76.73-.44 1.25-.3 2.2-.42.03-.4-.08-.79.06-1.15.17-.42.3-.29.34-.8-.49-.49-1.8-.44-1.27-1.59.27-.59 1.36-.72 2.19-.82 1.19-.16 1.71.03 2.21-.8.47-.77.71-1.57-.37-1.85-.99-.25-1.67-.07-2.34.39-.5.35-3.15 2.37-3.31 2.71-.41.8-.08 1.66-1.45 1.4-.67-.69-.89-2.39.12-3.05.81-.54 1.61-1.46 2.34-2.12 1.33-1.2 3.94-3.04 4.06-4.9-1.71-.03-1.54 1.31-1.63 1.6zM5.54 102.08c.5 14.42 3.59 26.9 8.96 38.05 3.48 7.23 6.65 12.3 11.28 18.2 2.05 2.61 3.38 3.96 5.45 6.29l2.87 2.94c4.48 4.17 7.83 7.01 13.03 10.54 4.65 3.15 9.59 5.78 15.18 8.29 5.39 2.42 11.65 4.33 17.91 5.67 25.85 5.54 53.88-.62 74.31-15.72 4.16-3.07 9.1-7.12 12.61-10.87 4.07-4.36 7.04-7.8 10.54-13.03 10.35-15.48 16.48-34.43 15.93-54.46-.19-7.29-1.08-14.21-2.76-20.81-1.7-6.7-3.39-11.13-6.17-17.3-3.49-7.72-7.67-13.58-12.61-19.79l-2.74-3.18c-4.5-5.26-11.6-11.13-17.3-14.99-4.62-3.13-9.59-5.81-15.18-8.3-12.25-5.45-25.67-7.78-39.34-7.64-24.52.23-48.87 11.29-65.49 28.54-1.9 1.98-3.67 4.08-5.55 6.3a59.28 59.28 0 0 0-2.58 3.33C17.64 52.8 13.35 60.9 9.96 71.34c-3.01 9.31-4.77 20.78-4.42 30.74z"/><path class="fil1" d="M138.01 141.74c.01 1.36-.16 1.85.47 2.85 1.86 2.95 5.5.45 5.54-1.39.1-4.3.04-8.62.17-12.92.32-11.26.55-17.03-6.71-25.91l-3.13-3.44 8.21-9.15c.57-.59.88-.71 1.19-1.71.83-2.65-.07-4.69-3.67-4.42-1.16.08-1.33.4-1.92 1-.48.49-1 .85-1.45 1.35-.97 1.06-1.91 1.86-2.92 2.9-.47.48-2.43 2.83-2.74 3-2.13-1.51-2.36-10.41-1.96-12.45 4.1.01 8.34.08 12.45.19 3.5.09 8.05.95 8.79-3.57.76-4.68-5.59-3.77-8.69-3.77-4.19 0-8.38-.01-12.59-.04l.06-4.27c2.69-.6 8.13 1.53 11.61-3 2.7-3.53 2.14-7.31 2.02-12.27-.02-.77.02-.91-.38-1.44-.91-1.22-2.41-1.62-3.89-1-2.16.92-1.39 3.13-1.44 5.67-.04 2.06-.37 4.51-1.56 5.66-.85.81-1.72.65-3.07.64-.95 0-2.72.02-3.59-.12-.9-5.02-2.83-8.62-7.82-10.46-2.78-1.03-5.13-.79-8.32-.8-1.39 0-3.09-.17-4.34.21-3.45 1.04-3.16 4.09-1.79 5.39 1.01.97 2.04.82 3.63.73 2.8-.15 5.81-.19 8.27.65 2.76.95 3.63 2.73 3.6 5.57-.04 2.99-.12 5.98-.14 8.99l-20.16-.24c-.14-1.54-.18-3.43-.21-5.01l-.38-9.97c-.06-1.39.12-3.68-.54-4.66-1.62-2.38-5.97-1.75-5.86 1.55.11 3.29.32 6.64.37 9.96.1 6.86.18 13.67.18 20.56-.01 6.83.08 13.79-.06 20.58-.14 6.86-.03 13.88-.01 20.75.01 3.42.01 6.88.1 10.28.09 3.29-.17 6.81 2.56 7.81 1.65.6 2.75-.42 3.34-1.49.78-1.38.56-2.87.57-4.65.01-3.44.03-6.86.06-10.28l.21-30.85c.01-2.31-.39-6.67 3.09-7.29 2.92-.52 5.43 2.18 6.31 3.93.78 1.56.66 2.57.66 4.51v41.53c0 1.98-.17 2.9 1.18 3.93 1.18.9 2.83.45 3.86-.26 1.46-1.01 1.29-1.7 1.27-3.88-.03-3.38-.06-6.79-.11-10.17l-.25-30.95c-.02-5.99.59-11.17-7.38-13.39-3.12-.88-5.94-.84-9.35-.88l.04-4.39 20.48.01c.06.74-.13 2.01-.14 2.87-.04 4.12.69 9.16 2.64 12.7 1.16 2.12 1.29 1.97 2.49 3.6-.28.62-.74 1.3-1.09 2-1.08 2.14-1.81 4.27-2.32 6.72-1.3 6.19-1.07 16.67-.99 23.27.03 1.99.05 4.02.12 6.02l.12 4.36c.06 1.79 2.24 3.65 4.4 3 .81-.25 1.35-.73 1.77-1.23.64-.74.44-1.41.41-2.6-.09-3.99-.14-7.96-.22-11.94-.14-6.22-.29-13.46 1.7-19.41.25-.75.67-1.5.87-2.12 1.43.43 2.89 2.06 3.62 3.1 2.59 3.74 2.4 6.46 2.56 10.53.08 2.11.1 4.33.11 6.44.02 4.33.09 8.65.09 12.98z"/><path class="fil1" d="M96.6 2.14c13.38-.72 29.18 2.52 41.14 7.67 5.88 2.54 11.03 5.33 15.93 8.58 2.52 1.67 4.82 3.34 7.09 5.17 1.33 1.07 5.57 4.65 6.48 5.67l3.07 3.05c.58.53.91 1.05 1.5 1.62l2.85 3.28c5.02 5.89 9.77 13.29 13.2 20.44 5.34 11.12 9.23 24.88 9.59 39.26.37 15-2.5 29.38-7.69 41.28-2.14 4.91-5.46 11.54-8.57 15.93-2.17 3.05-4.04 5.89-6.57 8.79-.21.25-.5.57-.72.84l-3.53 3.95c-8.57 8.64-16.97 15.05-28.41 20.6-12.73 6.17-24.96 8.87-39.36 9.58-14.18.7-30-2.78-41.17-7.66-5.96-2.61-10.95-5.29-15.94-8.58-2.54-1.67-4.8-3.35-7.08-5.17-.6-.47-1.11-.91-1.71-1.41-1.12-.94-3.83-3.27-4.76-4.27-.5-.54-1.04-1-1.58-1.54l-3-3.13c-.47-.46-1.01-1.07-1.43-1.58-2.06-2.56-3.21-3.73-5.45-6.8-3.35-4.6-6.4-9.63-9.18-15.32-5.45-11.18-9.51-26.4-9.58-39.27-.02-4.1-.03-7.82.34-11.85.97-10.43 3.34-20.04 7.33-29.44 5.04-11.91 12.06-22.07 20.97-31.06 2.92-2.94 4.93-4.61 8.04-7.21 1.11-.93 2.28-1.8 3.47-2.66 9.89-7.15 20.96-12.59 33.29-15.74 7.9-2.01 13.28-2.58 21.44-3.02zM101.68 200h-3.93c-5.46-.1-10.92-.63-16.16-1.63-2.8-.54-7.24-1.48-9.95-2.41-.79-.27-1.63-.44-2.38-.74l-4.53-1.59c-2.22-.77-4.31-1.78-6.44-2.69l-5.23-2.57c-.36-.19-.59-.35-1-.55-2-.99-3.84-2.26-5.74-3.4-3.09-1.86-6.24-4.19-9.02-6.46-1.04-.85-2.35-1.84-3.32-2.8l-3.21-2.92c-.86-.71-3.91-3.84-4.56-4.68l-1.47-1.65c-.2-.21-.19-.25-.37-.46l-1.02-1.16c-.48-.59-.92-1.1-1.41-1.71-.26-.32-.44-.54-.68-.87l-1.35-1.76c-1.56-2.09-3.02-4.17-4.4-6.4l-1.8-2.88c-.19-.32-.33-.62-.52-.94-.39-.64-.75-1.29-1.11-2l-3.04-6.09c-.35-.71-.63-1.38-.98-2.14-.8-1.8-1.57-3.69-2.21-5.58-.14-.41-.22-.71-.36-1.09l-1.51-4.62c-1.35-4.14-2.65-11.16-3.18-15.3-.59-4.64-.8-9.37-.8-14.36 0-2.11.11-4.01.21-6.03.19-3.8 1.49-12.44 2.53-15.95.25-.85.37-1.65.62-2.49l1.79-6c.73-2.22 1.64-4.46 2.52-6.62.16-.4.29-.7.46-1.1 1.07-2.51 2.26-4.92 3.5-7.3 1.04-2 2.23-3.92 3.38-5.86l2.44-3.69c.2-.29.35-.55.58-.87.87-1.27 1.77-2.39 2.63-3.6.21-.28.44-.55.69-.87l6.41-7.4c.75-.9 3.76-3.81 4.67-4.57l2.12-1.83c.16-.13.21-.22.37-.35l5.96-4.74c2.55-1.91 5.26-3.55 7.95-5.24.14-.09.28-.2.43-.29l3.94-2.19c.36-.18.62-.29.96-.49.42-.25.59-.31 1.03-.53.38-.19.61-.35 1.03-.53 1.43-.59 2.75-1.35 4.2-1.93l6.66-2.58c.36-.14.79-.28 1.16-.4l3.47-1.09c2.56-.86 7.24-1.9 9.97-2.39 2.85-.52 6.61-1.08 9.5-1.3.53-.04.9-.1 1.34-.11l9.04-.21c5.46 0 6.8.38 11.53.82 1.01.1 1.78.22 2.74.38.88.15 1.78.28 2.58.43 1.7.33 3.4.68 5.04 1.09 4.02 1.01 7.98 2.13 11.83 3.65l2.17.83c.78.28 1.45.6 2.2.91 2.49 1.01 4.9 2.33 7.29 3.52l6.75 3.94c2.81 1.68 9.79 6.8 12.33 9.28l2.39 2.18c.32.32.51.43.83.72l3.06 3.07c.29.33.4.5.73.83l1.5 1.6c.63.63 1.17 1.41 1.77 2.08.14.16.22.21.35.38 2.48 3.06 6.58 8.27 8.43 11.61l.88 1.51c.09.14.2.28.29.43.95 1.58 1.78 3.39 2.68 4.9.8 1.33 2.39 4.77 2.99 6.26l1.36 3.31c1.32 3.11 2.43 7.16 3.38 10.43 1.14 3.87 2.09 8.82 2.53 12.84l.49 4.18c.19 2.49.32 4.69.32 7.26l-.21 9.14c-.2 4.12-1.56 12.05-2.53 15.95-.41 1.64-.79 3.33-1.32 4.91-.52 1.54-.9 3.08-1.5 4.63l-1.67 4.46c-.88 2.48-3.11 7.01-4.43 9.48l-3.39 5.85c-3.8 6.39-9.17 12.85-14.26 17.93-.5.5-1.04 1.12-1.56 1.56-.36.3-.49.39-.83.73-.26.26-.51.54-.79.77l-1.65 1.46c-.21.21-.25.21-.45.38-.17.13-.23.21-.39.34l-2.49 2.07c-.31.25-.55.44-.88.69-1.45 1.07-2.86 2.21-4.35 3.23-1.84 1.24-3.69 2.6-5.66 3.68-.4.22-.63.39-.97.59-2.92 1.69-5.94 3.3-9.03 4.68-1.39.61-2.9 1.35-4.35 1.88l-2.25.86c-.43.17-.64.28-1.12.44-.42.13-.69.22-1.08.38-1.52.6-3.08.97-4.63 1.49-4.07 1.34-11.11 2.66-15.3 3.18-3.67.46-7.43.73-11.23.8z"/></g><g><path class="fil2" d="M108.53 157.32c-.16 1.39-.53 2.41-1.35 3.03-1.36 1.01-7.16 2.05-6.31-5.56.16-1.44.56-2.39 1.41-2.98 1.67-1.13 7.09-1.75 6.25 5.51zm-9.74-.21c-.3 2.86-1.63 4.4-4.89 3.82-3.8-.68-3.41-7.6-1.5-9.03 1.53-1.15 7.13-2.02 6.39 5.21zm-14.87-2.7l-2.63-.2c.22-1.7.95-2.66 2.59-2.95 4.67-.85 7.36 2.77 2.67 6.11-.54.39-1.2.78-1.54 1.32l4.01.01.02 2.09c-1.02.16-6.48.08-7.92.06.09-3.87 6.32-5.33 5.06-7.36-.19-.31-1.7-1.43-2.26.92zm29.16-.38c-.54-.01-1.97-.22-2.39-.45.31-2.03 2.74-2.81 5.09-2.28 2.42.55 2.82 3.16.82 4.23.02.02.06.01.07.05l.28.15c.16.08.19.07.36.17 1.72.96 1.25 3.93-.85 4.79-1.07.44-2.87.45-3.97.03-.82-.32-1.95-1.34-1.94-2.4l2.6-.34c.14.65.29 1.14.84 1.34 1.54.53 2.14-1.48 1.4-2.33-.46-.53-1.04-.39-1.79-.28l.12-1.84c2.49-.02 1.57-2.65.06-1.94-.44.21-.45.66-.7 1.1zM52.7 138.05c.82-.2 24.15-.06 27.15-.06 1.47 0 8.26-.08 9.11.04V142l-36.23.02-.03-3.97zm14.84-7.53l21.79-.03-.17 3.6-36.44.03c-.08-.88-.16-4.9.14-5.35.78-1.16.99-.99 1.86-.98.97.02 1.94.01 2.91.01 3.8.02 7.62-.01 11.41.06-.09.59-1.24 1.97-1.5 2.66zm-9.31-10.2c.64-.95.32-1.17 1.79-1.16h14.39c-.15.49-2.3 4.11-2.69 4.69l-15.71-.02 2.22-3.51zm-4.27-35.63c1.21-.11 2.97 0 4.24.01 3.2.03 29.9-.02 30.12.19.31.4.1 1.83.1 2.44l.06 7.79c.01 1.35.13 1.15-.46 2.14-.33.55-.62 1.07-.96 1.63l-9.58 16.17H61.56c.11-.48 9.08-14.57 10.34-16.58.29-.48 1.24-1.86 1.37-2.27l-19.35-.1.04-11.42zm-5.27-6.39c0-.53.01-1.05.2-1.44.26.21.22.24.27.68v5.68c-.04.39-.05.5-.27.67-.34-.7-.2-4.56-.2-5.59zm1.05 4.75c-.12-.1-.09-.02-.18-.23-.13-.33-.08-2.25-.08-2.65l.02-2.4c.02-.21.01-.19.09-.35.1-.22.02-.08.15-.19.36.52.4 5.28 0 5.82zm-1.56 0c-.48-.5-.24-2.11-.24-2.88 0-.51-.07-2.31.11-2.75.06-.16.06-.11.13-.2.31.38.24.81.24 1.39-.01 1.22.22 3.94-.24 4.44zm21.83-16.01c4.48-.31 11.66 1.24 14.28 4.85.64.88.51.83.54 2.15.01.95.09 4.78-.07 5.45-.25 1.05-1.91 2.12-2.86 2.61-5.37 2.77-18.31 2.52-22.65-.95-1.57-1.25-1.34-1.72-1.35-4.2-.01-.94-.01-1.87-.01-2.81.01-1.5-.16-1.36.57-2.18 2.98-3.35 6.74-4.58 11.55-4.92zm-21.38 6.78c1.71-.48 2.33 2.31.67 2.71-.92.21-1.59-.36-1.71-1.06-.15-.96.31-1.45 1.04-1.65zm-.46-4.04c0-1.5 1.42-1.28 1.42-.1v2.91c0 1.37-1.42 1.24-1.42 0v-2.81zm-.42-2.56c.21-.25.39-.28.7-.39l19.84-7.99c.65-.25 2.36-.96 3-1.05.47-.08 2.37.84 2.97 1.09l20.2 8.41c-.18.19-9.11 4.03-9.72 4.14-.94-1.05-1.18-1.45-2.4-2.27-4.93-3.33-13.29-3.68-18.92-1.69-2.6.92-3.86 1.93-5.48 3.77-.55-.02-4.38-1.69-5.16-2.01-1.64-.66-3.42-1.42-5.03-2.01zm81.36 2.77l-.06 4.27c4.21.03 8.4.04 12.59.04 3.1 0 9.45-.91 8.69 3.77-.74 4.52-5.29 3.66-8.79 3.57-4.11-.11-8.35-.18-12.45-.19-.4 2.04-.17 10.94 1.96 12.45.31-.17 2.27-2.52 2.74-3 1.01-1.04 1.95-1.84 2.92-2.9.45-.5.97-.86 1.45-1.35.59-.6.76-.92 1.92-1 3.6-.27 4.5 1.77 3.67 4.42-.31 1-.62 1.12-1.19 1.71l-8.21 9.15 3.13 3.44c7.26 8.88 7.03 14.65 6.71 25.91-.13 4.3-.07 8.62-.17 12.92-.04 1.84-3.68 4.34-5.54 1.39-.63-1-.46-1.49-.47-2.85 0-4.33-.07-8.65-.09-12.98-.01-2.11-.03-4.33-.11-6.44-.16-4.07.03-6.79-2.56-10.53-.73-1.04-2.19-2.67-3.62-3.1-.2.62-.62 1.37-.87 2.12-1.99 5.95-1.84 13.19-1.7 19.41.08 3.98.13 7.95.22 11.94.03 1.19.23 1.86-.41 2.6-.42.5-.96.98-1.77 1.23-2.16.65-4.34-1.21-4.4-3l-.12-4.36c-.07-2-.09-4.03-.12-6.02-.08-6.6-.31-17.08.99-23.27.51-2.45 1.24-4.58 2.32-6.72.35-.7.81-1.38 1.09-2-1.2-1.63-1.33-1.48-2.49-3.6-1.95-3.54-2.68-8.58-2.64-12.7.01-.86.2-2.13.14-2.87l-20.48-.01-.04 4.39c3.41.04 6.23 0 9.35.88 7.97 2.22 7.36 7.4 7.38 13.39l.25 30.95c.05 3.38.08 6.79.11 10.17.02 2.18.19 2.87-1.27 3.88-1.03.71-2.68 1.16-3.86.26-1.35-1.03-1.18-1.95-1.18-3.93V99.9c0-1.94.12-2.95-.66-4.51-.88-1.75-3.39-4.45-6.31-3.93-3.48.62-3.08 4.98-3.09 7.29l-.21 30.85c-.03 3.42-.05 6.84-.06 10.28-.01 1.78.21 3.27-.57 4.65-.59 1.07-1.69 2.09-3.34 1.49-2.73-1-2.47-4.52-2.56-7.81-.09-3.4-.09-6.86-.1-10.28-.02-6.87-.13-13.89.01-20.75.14-6.79.05-13.75.06-20.58 0-6.89-.08-13.7-.18-20.56-.05-3.32-.26-6.67-.37-9.96-.11-3.3 4.24-3.93 5.86-1.55.66.98.48 3.27.54 4.66l.38 9.97c.03 1.58.07 3.47.21 5.01l20.16.24c.02-3.01.1-6 .14-8.99.03-2.84-.84-4.62-3.6-5.57-2.46-.84-5.47-.8-8.27-.65-1.59.09-2.62.24-3.63-.73-1.37-1.3-1.66-4.35 1.79-5.39 1.25-.38 2.95-.21 4.34-.21 3.19.01 5.54-.23 8.32.8 4.99 1.84 6.92 5.44 7.82 10.46.87.14 2.64.12 3.59.12 1.35.01 2.22.17 3.07-.64 1.19-1.15 1.52-3.6 1.56-5.66.05-2.54-.72-4.75 1.44-5.67 1.48-.62 2.98-.22 3.89 1 .4.53.36.67.38 1.44.12 4.96.68 8.74-2.02 12.27-3.48 4.53-8.92 2.4-11.61 3zM97.17 32.24c-13.86.61-26.63 5.22-37.54 13.26l-3.53 2.81c-4.58 3.78-9.85 9.85-12.93 14.69-2.1 3.3-4.3 7.1-5.85 11.08-3.64 9.35-5.55 18.31-5.08 28.75.23 5.19 1 10.04 2.25 14.71 1.11 4.18 2.77 8.75 4.6 12.31 4.84 9.35 10.74 17 18.96 23.42 1.61 1.26 3.14 2.41 4.95 3.56 7.44 4.73 15.13 8.05 24.11 9.76 4.95.94 10.39 1.41 15.74 1.17 36.55-1.59 66.39-32.11 64.92-70.63-.92-23.87-14.65-43.72-30.76-53.97-7.46-4.74-15.11-8.03-24.12-9.75-4.96-.95-10.42-1.41-15.72-1.17z"/><path class="fil2" d="M97.56 30.35c4.82-.37 11.5.41 16.04 1.33 10 2.05 19.09 6.09 27.22 12.03.85.62 1.65 1.24 2.47 1.89 4.52 3.58 9.34 8.71 12.73 13.33 7.96 10.85 12.87 24.32 13.34 38.78.36 11.18-1.78 20.21-5.42 29.36-2.36 5.95-6 11.61-9.76 16.41-.66.83-1.3 1.59-2 2.36l-3.11 3.34c-1.76 1.76-3.79 3.62-5.73 5.17-7.56 6.03-16.33 10.62-26.03 13.11-10.03 2.57-20.96 3-31.2.84-16.47-3.47-30.54-12.21-40.54-24.77-6.1-7.67-10.52-16.3-13.06-26.1-1.31-5.04-1.86-9.65-2.17-15.19-.56-9.96 1.81-20.42 5.42-29.31 3.4-8.39 8.84-15.79 13.77-21.02.35-.37.75-.72 1.1-1.07 2.6-2.6 5.18-4.9 8.2-7.07 7.25-5.21 14.59-8.86 23.57-11.23 2.33-.61 4.77-1.1 7.24-1.47 2.74-.4 5.11-.5 7.92-.72zm-.44-2.14c-6.42.49-9.36.65-15.72 2.31-9.89 2.58-19.15 7.35-26.82 13.57-.87.7-1.58 1.38-2.41 2.05-1.73 1.41-2.99 2.93-4.61 4.43-2.1 1.93-6.51 7.85-7.95 10.02-7.8 11.84-12.45 27.11-11.71 42.16.79 16.03 6.3 30.72 15.93 42.42l6.53 7.07c5.95 5.51 12.58 10.18 21.8 14.12 8.27 3.53 20.33 6.1 30.47 5.43 10.92-.72 19.09-2.47 28.78-7.15 8.76-4.24 16.51-10.42 21.77-16.35l1.07-1.2c4.43-4.72 9.65-13.39 12.06-19.4 3.54-8.8 6.12-19.41 5.48-30.46-.92-15.85-5.35-27.97-13.97-39.89-3.06-4.24-5.1-6.1-8.51-9.56-1.21-1.22-3.34-3.04-4.77-4.16-8.93-7.02-19.32-11.93-30.8-14.15-4.86-.94-11.45-1.65-16.62-1.26z"/><path class="fil2" d="M83.93 79.34c.82-2.05-2.86-3.44-4.45-3.89-4.45-1.24-10.63-1.31-15.09-.25-6.24 1.46-8.15 4.84-1 6.91 2.22.64 4.9.95 7.43.98 4.11.05 11.91-.77 13.11-3.75zM141.76 32.36c.21 1.11-.27 1.16-.93 1.62-.52.35-1.39.92-1.74.04-.37-.91-.34-1.39.47-1.73.8-.33 1.59-.35 2.2.07zm-1.57-2.05c-.3-.58-.49-1.27.22-1.54.32-.12 1.38-.31 1.74-.31.08 1.1-1.5 1.8-1.96 1.85zm-6.26 1.15c-.34-.68.13-.24 1.44-1.6 1.12-1.16 2.68-2.95.82-4.16-.88-.58-1.66-.55-2.86-.48-1.6.09-1.36.24-2.59-.4-.99-.52-1.58.26-1.68 1.24-.15 1.43.2 1.61 1.09 2.15.9.54 1.6-.3 2.66 0 .24.46-.95 1.75-1.41 2.46-.56.85-1.14 4.33.6 4.53.54.06 1.07-.44 1.38-.67.41-.3 2.14-1.67 2.43-1.7.12.71-.11 1.62.47 2.02.5.35 1.17-.43 1.63-.62-.2.64-.65.94-.71 1.59.37.44 1.39.81 2.19.88 1.11.1 1.57-.65 2.34-.67-.52 1.51-2.16 1.23-2.71 2.08.01.87.64.88 1.47.81 1.58-.13 1.15-.47 1.8-.63l1.12 3.14c.19.59.28 1.12.67 1.51.3.29.95.7 1.51.69 1.99-2.31.64-6.78-.21-6.52-.77.61-.16 2.37-.83 2.91-.39-.28-.55-1.73-.58-2.15-.08-.93 1.48-2.04 2.08-3.24.59-1.16 1.89-3.07 1.03-3.73-.5-.38-1.43-.71-2.03-.18-.75.68-.06 1.6-1.19 3.58l-.35.41c-.38-.83.65-.94.34-2.46-.08-.38-.19-.94-.12-1.39.16-1.04 2.46-1.03 2.49-2.31.01-.4-.33-.68-.66-.9-.48-.32-.59-.21-.77-.89-.42-1.61.59-4.33.8-5.48.09-.46.11-.98.09-1.45-.02-.7-.01-.83-.54-1.11-2.96-1.54-4.5.56-2.57 1.01.49.11.6.32.67.86.06.43.03 1.14-.01 1.58-.12 1.23-.52 4.63-1.5 4.94-2.7.86-2.71-1.36-3.91 1.98-.31.87-3.32 2.41-3.6 2.43-.34.03-.09.05-.29-.06zM18.15 70.22c.28.13 1.08 1.35 1.59 1.94.26.3.64.59.86.91.27.39.33.63.77 1.05-.06.54-.26.35-.1.96.12.44.32.59.2 1.11-1.37.53-2.05-1.58-2.7-2.44-.91-1.18-1.41-2.91-2.82-2.54-.68 1.42.91 4.07.48 5.99-.14.64-.64 1.09-.53 1.83.45.33 1.3.62 2.01.26.65-.34.69-.99.97-1.61 1.11.1 1.29 2.23 1.42 3.17.13.95-.02 1.21.69 1.59.45.23 1.07.69 1.54.76.47-.24.96-.93.61-1.57-.26-.49-.18-.21-.36-.79-.14-.44-.33-.39-.34-.85.72.14 1.13.78 1.81.95.82.2 1.82-.12 1.62-1.07-.28-1.28-2.9-1.59-3.38-2.4.18-.57.44-.59.58-.92.25-.57-.22-.54.15-1.17.52.21.18.5 1.53 1.33.7.43 1.02.96 1.83.16-.07-.79-.58-.66-1.38-1.55-1.03-1.12-2.83-1.91-3.14-2.69-.57-1.45-.94-1.15-.96-2.02.39.06.29.16.63.39.22.16.48.3.7.45.38.27 2.02 1.9 2.47-.02.16-.65.15-1.33.36-1.94.24-.71.92-.65 1.45-.36.87.48 2.02.95 2.49 1.98.22.49 1.08 1.83.04 1.63-.71-.14-2.43-1.78-3.24-1.26-.65.43-.51 1.19-.22 1.81.56 1.21-.34 1.08-.34 2 3.01 2.54 2.88.03 3.12-.53.87.01.54.82 1.46.73.02-.57-.21-.61-.3-1.11.77.14 1.22-.16 1.55-.64.39-.56.17-1.47.06-2.14-.2-1.18-1.13-1.77-2.27-2.63-.79-.59-1.89-1.63-3.31-1.56-1.49.07-1.48 1.59-2.28 2.59-1.01-.11-1.98-1.75-3.04-1.77-.26.34-.44.87-.58 1.36-.64-.16-1.43-1.45-1.59-2.28-.36-1.85-1.87-1.47-1.76-.34.04.34.37.85.47 1.42.15.88-1.25 2.98.09 2.69.66-.15.85-.42 1.09-.86zM179.12 72.25c-.26.36-.14.61-.41 1.06-.76-.04-2.15-.82-2.7-1.24-.51-.4-.7-.39-1.35-.01-2.46 1.44.07 1.72.44 2.74-1.25-.21-2.7-.93-3.66-1.57-.45.32-1.28.72-1.29 1.43.72.59.42-.16 1.35 1.19.93 1.36-2.11 3.28.84 5.5.9.67 4.27 2.94 5.39 1.46.38-.5.4-1.6.05-2.22-.76.19-.73 1.97-3.84-.43-.49-.38-1.2-.82-1.09-1.73.13-.98.22-1.62.28-2.73l2.67.85c.75.19 2.09 1.05 2.76.56.92-.67-.36-1.79-.74-2.17-.66-.66-1.66-1.41-1.68-1.91.4.14.86.46 1.21.71 1.47 1.07.71 1.58 1.96 2 .86.29.6-.42 1.58-.33.69 1.14.63 2.81 2.5 2.71 1.26-.07 2.83-1.2 2.84-2.52.03-1.78-2.5-4.3-3.98-5.21-.29-.17-.58-.23-.7-.58.72-.48 1.63.33 2.31.95.35.31.86 1.63 2.02 1.73 1.99.18 2.02-4.21-.11-4.58-.61.1-.62 1.03-.65 1.22-.06.35 0 .22-.18.48-1.06-.03-3.61-2.05-5.14-2.4-.59-.14-.52-.03-.79.28-.4.47-.87.47-1.13.94-.48.87-.06.95.46 1.31l5.1 3.52c.5.31.92.59 1.15 1.04.56 1.1-.86 2.06-2.2 1.04-.47-.36-.99-.42-1.23-.95-.25-.54-.27-1.14-.6-1.57-.24-.31-.88-.81-1.44-.57zM159.64 52.92c.41.2 1.32.18.57.95-.35.37-1.07.32-1.37-.15-.13-.21-.55-1.23-.29-1.49.42-.41.68.5 1.09.69zm9.21-10.19c.46-.34.87-.99 1.99-.49.34.16.38.17.48.46-.4.4-1.82.8-2.58.93l-6.23-.08c-1.12.02-2.44-.48-3.19.71-1.45 2.24.13 2.27.66 2.02.64-.31.69-.62 1.56-.55 1.64.14 4.41.12 5.38.95 2.29 1.98-.62 3.23-1.73 2.35-.51-.41-1.85-1.48-2.55-1.7-.62-.2-1.26.01-1.39.56-.2.86 1.02 1.46-.08 1.86-.98.35-.57.15-1.25.96-.82-.26-.95-1.13-2.08-1.21-.34.19-.76.57-.9.97.18.52.44.39.16 1.13-.6 1.61-.39 2.34.89 3.39 2.64 2.17 3.04-.13 4.21-.38.13.36-.23.58 1.19.92.68.17 1.12-.23 1.31-.7.08-.87-2.78-2.91-2.78-2.91.22-.32 1.81-1.28 2.36-1.26.48.14-.05.7 2.39.48 1.04-.09 3.2-1.44 2.99-2.72-.12-.74-.56-1.72-.57-2.39.46-.3 2.84-.68 3.71-1.69.52-.59.05-1.52-.36-1.93-.44-.46-1.17-.6-1.74-.96-.89-.54-.76-.53-1.27-1.43-1.25-2.15-2.43.45-2.03 1.42.17.42.93 1.13 1.45 1.29zM38.97 45.23c.35.17.57.65.46 1.05-.79.06-1.42-.72-1.5-1.62l1.04.57zm-6.71 5.38c.31.25.39.51.97.52 1.35-.79-.54-2.25-.74-3.48-.13-.79.48-1.67.72-1.88 1.53-1.32 3.24 5.65 2.98 6.95-.16.78-.77.97-1.42 1.24-.03.71.16 1.08.43 1.48.94.08 1.61-.77 1.98-1.23 1.16-1.38 1.16-3.65.61-5.18-.3-.87-1.06-1.66-1.14-2.23.87.26 2.62 2.28 4.77 1.15.87-.45.17-1.66-.16-2.19-.43-.69-1.2-1.32-1.42-1.9 1.07.08 2.36.06 3.11.52 1.48.92 3.5 2.14 2.91 4.29-.3 1.1-1.92.91-1.18 1.97.52.04.72-.3 1.14-.56.44-.27.78-.36 1.02-.85.45-.9.39-2.11-.08-2.94-.6-1.07-2.62-2.67-3.96-3.32-1.01-.49-3.4-.97-4.47-.49-.58.27-.51.57-1.36.54-2.26-.09-1.81 1-2.97.14-.75-.56-2.17-.75-2.36.45.37.57.86.39 1.22.94-.05.65-.22.59-.77.72-.7.16-.3.36-.83.68-.8-.58-.71-1.73-1.02-2.78-.44-1.52-2.42-1.95-.52 3.43.35.98.78 1.87 1.05 2.91.23.86.27 2.53.63 3.2 1.35 2.48 3.22 2.59 2.76 1.51-.16-.36-.56-.79-.82-1.16-.25-.37-.54-.76-.7-1.28-.21-.67-.64-.76-.38-1.17zM113.6 19.01c.1.75-.72 1.45-1.04 1.86-.85 1.03-.91 1.31-1.42.7-1.12-1.35 1.61-2.83 2.46-2.56zm.7-7.24c.37 1.12-1.66 3.04-2.22 3.74-.42.53-.07.99-.16 1.73-.52.54-1.84.84-2.42 1.5-.87 1-.76 1.97.17 2.74.89.73 1.55 1.03.48 2.16-.99 1.05-2.1.77-1.73 2.1.64 2.26 3.63 1.9 5.65 1.2 1.15-.4 2.19-.33 2.87-1.07.58-.64 1.35-1.83.3-2.67-.65.32-.37 1.5-4.55 1.79-.07-1.02 1.49-1.15 2.1-1.58.67-.48.94-1.67 1.35-2.49.4-.81.89-1.8.48-2.85-.28-.71-.41-.54-1.11-.75-.29-.09-1.06-.64-1.21-.81.11-1.79 4.12-3.5 1.56-5.79-.68-.61-1.12-.6-2.14-.87-1.1-.28-1.47-.4-2.42.2-.75.48-1.19 1.02-.75 1.93.21.42 1.2 1.16 1.92.9.62-.22 1-1.1 1.83-1.11zM16.8 93.81c-2.77.4-5 2.63-4.65 5.87.29 2.63 2.79 4.93 5.89 4.54 2.64-.33 4.9-2.78 4.52-5.81-.33-2.61-2.74-5.02-5.76-4.6zM181.95 93.84c-2.68.4-4.98 2.74-4.53 5.89.38 2.64 2.8 4.9 5.93 4.48 2.61-.35 4.92-2.88 4.46-5.93-.39-2.57-2.75-4.9-5.86-4.44zM86.32 24.32c.58-.17.67.08 1.18-.06.46-.12.31-.4.87-.14.63 1.77-2.19 1.23-2.05.2zm.83-12.58c.09-.29-.08-1.63 1.63-1.6-.12 1.86-2.73 3.7-4.06 4.9-.73.66-1.53 1.58-2.34 2.12-1.01.66-.79 2.36-.12 3.05 1.37.26 1.04-.6 1.45-1.4.16-.34 2.81-2.36 3.31-2.71.67-.46 1.35-.64 2.34-.39 1.08.28.84 1.08.37 1.85-.5.83-1.02.64-2.21.8-.83.1-1.92.23-2.19.82-.53 1.15.78 1.1 1.27 1.59-.04.51-.17.38-.34.8-.14.36-.03.75-.06 1.15-.95.12-1.47-.02-2.2.42-.14 2.13.39.75.87 1.76.39.83.74 1.85 2.46 1.79 2.68-.09 2.42-.6 2.86-2.86.54-.03 0 .21.65.15.43-.05 1.6-.43 1.27-1.67-1.13-.45-2.54-.24-3.79-.12l.5-1.8c.34-.97.62-.28 1.3-.78.87-.64 1.45-1.36 1.62-2.62.3-2.12.01-1.63-2.31-3.16.09-.48.55-1 .8-1.48.58-1.14 1.14-2.56-.34-2.97-1.42-.39-2.05.94-3.93.3-2.42-.81-1.47 1.63-.81 2.06.37.23 1.53.36 2 0zM55.37 21.08c-.09 1.83 1.72 3.28 1.22 5.82-.26 1.35-.66.86-2.23 1.39-.5.17-.88.42-1.15.73-.38.42-.19.74.06 1.31.34.82.88 1.84 1.92 1.19.27-.17.74-.66 1.08-.63.37.04.74.59.72 1.08-.03.51-.88 1.31.21 2.84.94 1.31 2.41-.11 2.42-.13.17-.4-1.15-2.64-.5-4.64.33-1 1.81-2.43 2.45-2.95 1.93-1.6 3.73-1.22 5.36-2.74.46-.43.38-1.61.07-2.26-.34-.68-1.29-.48-2.03-.32-1.96.44-2.38 2.08-4.52 3.58-.89.63-1.3.43-1.41-.7-.12-1.36-1.32-5.42-3.67-3.57zM14.02 108.13c-.19.38.37 3.42.47 4.05.64-.28-.23-.85 1.26-1.1.47-.08 1.62-.27 2.05-.22.2 1.73-.89 1.15-1.16 1.81.34.22 1.74-.13 2.46-.21.66-.08.65-.07.75-.31-.66-.33-1.59-.05-1.55-1.43l2.76-.38c.14 1.1.46 2.1-.47 2.67-.4.25-.53.11-.61.49.34.15 1.18-.1 1.63-.12-.01 1.07-.71 1.01-1.71 1.24-2.77.63-5.2.71-4.39 4.03.78 3.22 2.98 2.26 5.7 1.62.83-.19 1.93-.55 2.05.5-.73.31-1.48.25-1.63.62.67.4 1.81-.67 2.49 2.55l-7.58-1.48 2.02 6.01 2.42-.54c-.17-.15-.21-.13-.62-.15-.25-.01-.43-.01-.63-.06-1.2-.31-1.66-1.72-1.89-2.85l7.58 1.46c-.37-1.68-1.62-4.42-1.91-5.84-.06-.33-.14-.63-.22-1-.04-.19-.06-.33-.11-.51l-.23-.53c-.02.02-.04.04-.04.08-.15 1.22-1.09 1.11-3.2 1.59-1.45.33-2.98.73-3.45-.76-.63-2 1.9-2.02 4.6-2.66 1.78-.42 1.13.19 1.78.54.19-.38-.3-1.86-.42-2.39-.22-.96-.29-1.6-.43-2.59l-.7-4.89c-.14-.27.07-.11-.22-.19-.44 1.21.13.89-3.2 1.37-4.74.68-2.62-.02-3.65-.42zM134.04 171.07c.98-.06 1.05 0 1.38.78.22.51.5 1.08.63 1.57-.41.34-1.41.73-2.03.87-.14-.51-.45-1.14-.66-1.63-.57-1.38.42-1.05.31-1.56-.25-.04-2.79 1.06-3.4 1.34-.33.16-.26.05-.32.33 1.13.14.97-.1 1.45 1.02l1.55 3.64c.66 1.52-.2 1.07-.24 1.8.47-.11 3.55-1.37 3.73-1.66-.66-.4-.85.38-1.4-.97-.23-.55-.62-1.27-.71-1.85.68-.17 1.33-.65 2.04-.75.28 1 1.04 2.1.9 2.72-.09.39-.07.19-.26.38-.28.28-.15-.16-.24.36.42-.04 3.33-1.29 3.75-1.55-.79-.74-.46 1.32-2.21-3-.27-.65-.53-1.23-.78-1.82-.57-1.34.34-1.69.48-1.7.57-.04 1.53 2.12 1.97 2.89 2.08 3.6.75 2.23.76 3.3.44-.1 2.19-1.16 2.75-1.46.84-.46 2.02-1.23 2.82-1.54-.07-.41-.49-1.96-.83-2.18-.3.48.18 1.39-.41 2.09-.31.37-1.07.97-1.74.99-.34-.35-1.25-1.88-1.42-2.5 1.61-.45 1.11.36 2.05.68-.04-.39-1.31-2.84-1.7-3.06-.21.5.69 1.49-.64 2l-1.35-2.44c.52-.26 1.19-.72 1.72-.82 1.13-.22 1.05.58 1.72.67-.05-.38-.66-1.47-.93-1.73l-4.34 2.38c-.37.2-.77.37-1.04.61-.27.25.01.14-.47.37l-2.64 1.1c-.21.16-.15.05-.25.33zM116.11 177.15c.09.3-.02.11.29.23.15.06.24.03.4.12.47.27.63 2.16.64 2.66l-2.13.32c-.12-.62-.23-1.23-.3-1.83-.04-.3-.06-.62.08-.84.27-.41.42-.02.64-.61-.71.05-1.39.19-2.09.3l-1.56.24c-.57.14-.21-.03-.37.25 1.22.51.89-.18 1.44 3.28.71 4.57.15 2.51-.36 3.57.41.21 2.28-.26 3.14-.39.14-.02.38-.03.54-.07.57-.16.23.07.32-.27-.9-.34-1.06.2-1.39-3.09l2.15-.35c.16.83.44 2.12.31 2.95l-.71.46c.33.26 3.45-.29 4.03-.49-.09-.32.03-.1-.29-.23-.92-.38-.71-.59-1.04-2.58-.12-.8-.66-3.04-.36-3.64.22-.37.01-.09.4-.34l.46-.29c.48.25.55.82.72 1.49l.95 3.51c.37 1.39-.16.98-.54 1.56.28.16.6 0 .95-.09.34-.1.68-.19 1.07-.29.36-.09 1.72-.35 1.93-.65-1.08-.68-.69 1.07-1.8-3.18-.18-.68-.34-1.28-.53-1.96-.4-1.49.37-1.02.53-1.61-.22-.1-3.23.68-3.66.86-.79.33.25.22-.67.46-.59.16-2.61.29-3.19.54z"/><path class="fil2" d="M173.91 69.57c-.75-.57-2.11-.01-2.92.11.63-1.06 2.44-.96 3.82-1.72.64-.35 1.22-.54 1.99-.7 2.52-.53.8-.58 1.91-.95l.41.64c1.89.04 2.6.52 4.12-.3.08-.58.27-2.56-.5-2.76-1.44-.38-1.52.94-2.12 1.16-1.71.62-.73-2.24-8.62 1.55-1.11.53-5.37 2.12-4.5 4.22.46 1.11 2.35.51 3.37.16.7-.24 2.59-1.01 3.04-1.41zM41.53 163.32c.07.41.11.33.8.89.32.26.65.69 1.03.65-.18-1.2-1.05-.1.94-2.59.33-.41.62-.71.96-1.12.25-.31.71-.78.9-1.07l-.01 7.21c.19.36.31.33.58.58.37-.26 3.02-3.54 3.57-4.17.41-.47.74-1.07 1.63-.58 1 .56-.33 1.83-1.22 3.16-.37.54-.71 1.03-1.07 1.53-.65.9-.49.91-1.68.71.07.42-.09.16.31.45l3.01 2.03c.08-.74-.85-.47.18-1.89.4-.54.74-1.03 1.12-1.58.37-.55.73-1.07 1.11-1.59 1-1.39.95-.5 1.66-.7-.19-.47-3.41-2.42-4.44-3.27-.31-.25-.34-.42-.71-.36.31.86.74.52-.39 1.91-.29.36-1.07 1.42-1.46 1.63l.05-5.23c-.01-.04-1.89-1.81-2.42-1.91.23.87.76.52-.26 1.83-.4.5-2.77 3.43-3.15 3.61-.43.19-.64-.04-1.04-.13zM79.84 183.59c.17.3 1.28.41 1.88.52.67.13 1.42.31 2.09.39-.05-.69-.86-.07-.63-1.52.09-.59.26-1.3.37-1.91.13-.65.25-1.27.38-1.92.17-.88.08-1.35.97-1.45-.02.53-.24 1.35-.06 1.75.51-.24.14-.67.74-1.03.42-.26.98-.17 1.49-.14-.05 1.23-.24 2.53-.37 3.75-.06.58-.1 1.21-.19 1.77-.22 1.26-.78.53-1.02 1.04.26.17 3.81.55 4.06.41-.15-.48-.8-.08-.8-1.13 0-.55.14-1.37.19-1.91l.33-3.22c.07-.34 0-.17.14-.43 2.08.05 1.3.97 1.87 1.58.28-.35.27-1.31.29-1.83-1.73-.26-3.59-.4-5.34-.57-1.85-.19-.14-.14-2.43-.58-.86-.17-1.75-.38-2.64-.5.3.77.93.13.64 1.71l-.78 3.99c-.29 1.43-.41.82-1.18 1.23zM18.9 129.18c-.12.3.9 2.78 1.16 3.4.18.44.03.26.29.42.4-.64-.45-.8 1-1.37.61-.23 1.21-.52 1.83-.67l.79 2.07c-1.12.25-2.14.99-2.77.83-.5-.12-.21-.38-.77-.53.06.53 1.22 3.56 1.48 3.83.45-.55-.45-.82 1.08-1.39l3.61-1.38c1.65-.66 1.13-.06 1.85.28.17-.31-.73-2.32-.97-2.96-.15-.4-.17-.81-.57-.85.07.9.04.97-.77 1.3-.48.19-1.24.54-1.74.58l-.72-1.98c3.37-1.51 2.4-.44 3.22-.27.06-.16-.98-3.07-1.27-3.58-.01-.02-.03-.04-.04-.06l-.15-.17c-.34.5.41.85-1.1 1.4-.74.27-4.08 1.68-4.61 1.65-.68-.05-.35-.37-.83-.55zM71.2 173.98c1.85.43.85 2.78-.08 2.98-.2.04-.41.05-.61-.01-.46-.13-.27-.08-.28-.29 0-.14.84-2.07.97-2.68zm-2.81-1.39c.29.49.89.28.32 1.73-.24.63-1.53 4.16-1.78 4.45-.24.28-.39.19-.67.25l-.36.11c.21.18.14.12.42.25l3.47 1.25c-.29-.95-1.19.32-.12-2.55.15-.38.15-.6.42-.81.39.47.48 2.98.65 3.79.62.22 1.96.93 2.53.85-.09-.32-.29-.32-.45-.73-.1-.28-.15-.73-.19-1.04-.11-.68-.31-1.58-.32-2.22 2.51-.17 2.69-2.45.88-3.56-.24-.15-4.33-2-4.8-1.77zM166.45 143.05c1.33-.48 4.6 1.63 5.04 2.8.48 1.24-.65 3.13-4.46.31-1.61-1.19-1.91-2.62-.58-3.11zm1.31-1.61c-2.1.64-3.37 2.97-3.01 4.83.33 1.72 2.53 3.56 4.79 2.91 1.57-.44 3.37-2.54 2.97-4.76-.32-1.75-2.52-3.66-4.75-2.98z"/><path class="fil2" d="M30.03 138.63c-.36.9-1.9 1.93-2.89 2.43-2.6 1.33-3.29-.33-2.88-1.32.42-1.02 3.53-3.21 4.96-2.8.6.16 1.13.88.81 1.69zm-3.44-3.36c-1.92.35-3.8 2.05-3.33 4.39.37 1.84 2.13 3.91 4.46 3.52 1.87-.3 3.8-2.14 3.25-4.48-.41-1.76-2.13-3.84-4.38-3.43zM183.36 117.69c-2.41-.72-1.94-.25-2.43-1.32-.01-.02-.02-.05-.04-.08-.34.24-.57 1.85-.79 2.65-.29 1.04-.14.77-.04.91.35-.33.11-1.17 2.9-.15.09 2.91-3.81 1.7-5 1.09-1.8-.93-1.68-2.58-.48-3.43.61-.43.89-.23 1.49-.43-.07-.32.09-.19-.95-.44-.42-.1-.85-.26-1.25-.26.1.48.51.22.18.89-.31.64-1.21 1.34-1.07 3.24.36 4.79 8.96 4.92 7.48-2.67zM158.69 161.99c-.26-.36-.63-.78-.9-1.09-.78-.92-.15-.99-.25-1.4-.06-.02-.04-.12-.35.07-.14.09-.26.23-.39.34l-1.46 1.24c-.27.21-.59.28-.58.7 1.31-.07.24-.92 2.44 1.5-.4 1.1-1.5 1.25-2.56.49-3.1-2.21-3.16-5.66-.43-5.52.96.05 1.23.64 1.43.44l-1.33-1.75-.08.24c-.36 1.29-1.57.13-3.1 2.5-1.03 1.6-.5 3.33.48 4.43 2.86 3.21 6.58-.11 7.08-2.19z"/><path class="fil2" d="M173.1 129.23c1.08-.33-.79-1.24 3.56.24.61.21 1.26.45 1.85.64.26.09.69.23.87.38.35.29.11.26.33.92.01.02.02.06.04.08.28-.33.43-1 .57-1.42.18-.52.34-.97.51-1.47.28-.82.88-2.28 1.01-3.05l-1.78-1.02c-.83-.22.61.72.8 1.46.2.84-.19 1.72-.51 2.22-.54.05-2.28-.58-2.75-.81.49-1.49 1.37-.57 1.9-.93-.11-.24-2.96-1.28-3.28-1.13.11.31 0 .14.36.37.21.13.25.11.42.3.29.34.26.68.16 1.2l-2.59-.83c-.06-.58.26-1.27.55-1.72.6-.95.92-.35 1.73-.67-.11-.27.28-.08-.8-.44-.36-.12-.61-.24-.97-.29-.31.48-.83 2.29-1.07 2.98-.2.55-1.08 2.64-.91 2.99zM147.45 162.85c1.3-.15 1.07-.16 1.8.88.37.53.97 1.28 1.21 1.81-1.11-.15-3.02-.81-4.16-1.13-1.16-.33-1.05-.24-1.88.36-.41.29-1.31.79-1.5 1.16.51.29.76-.58 1.6.66l2.23 3.17c1.12 1.64.18 1.19.22 1.96.3-.08.78-.46 1.05-.65.63-.45.98-.54.76-.75-.23-.14-.69.42-1.26-.29l-2.53-3.68c.86.08 4.54 1.23 5.87 1.59.94.26 1.08.52 1.77-.13l-3.16-4.61c-1.02-1.4.03-1.26-.13-1.73-.18-.06-1.78.94-1.89 1.38zM59.36 175.88c-.01.28.57.43 1.21.73.97.45 3.81 1.85 4.44 2.03.34-.3 1.1-1.42 1.33-1.87-.67-.08-.68.83-1.86.87-.77.02-1.54-.35-1.94-.8 0-.5.83-2.29 1.12-2.59 1.37.49.36 1.41.72 1.96.3-.21.6-1.06.8-1.48.18-.37.69-1.26.64-1.69-.62.17-.41 1.25-1.95.77.06-.44.9-2.1 1.12-2.56.46.12 1.15.48 1.54.74.67.46.62.88.5 1.88.47-.16.08.18.4-.32l.58-1.38-5.68-2.71c-.02.64.31.12.42.85.06.38-.13.71-.27 1l-1.62 3.47c-.51 1.08-.42 1.04-1.24 1.08l-.17.01c-.02 0-.06 0-.09.01zM177.26 115.41c.92-.81-.53-1 3.59-.42.73.1 1.4.19 2.11.3 1.65.25.65.86 1.26 1.08.15-.29.9-5.73.9-6.27-.58-.17-1.68-.7-2.2-.61.09.4.95.49 1.32 1.29.32.69.18 1.73-.12 2.3-.73.08-2.07-.18-2.82-.3.16-1.49.89-.79 1.67-1.25-.18-.35-2.1-.46-2.57-.53-.37-.06-.62-.14-.85.01.35.65 1.33-.04 1.27 1.7-.7-.07-2.26-.19-2.76-.46.09-3.31 1.64-2.17 1.86-2.8l-1.93-.32-.73 6.28zM105.77 178.57c-.08.36-.04.67-.02 1.04.01.34-.03.73.17.98l.18-.36c.45-1.32.62-1.36 2.86-1.52l-3.13 7.08 6.39-.64c.01-.59.17-2.09-.07-2.46-.44.22-.06 1.15-1.11 1.87-.63.44-1.72.46-2.57.52l3.13-7.09-5.83.58zM74.35 179.81c-.27.26-.71 2.08-.74 2.52.64-.06.3-.55 1.02-.17.79.41 1.74 1.32 3.34 1.01 1.55-.3 2.53-2.13 1.44-3.6-.79-1.05-3.21-2.08-2.43-3.11.47-.61 1.59-.23 2.08.13 1.05.77.61 1.28 1 2.02.31-.17.33-.68.42-1.02.11-.42.29-.8.25-1.2-.53 0-.14.59-.85.24-.46-.22-1.67-1.47-3.39-.95-1.8.55-2.01 2.52-.74 3.7.4.37 3.48 2.44 1.72 3.18-1.05.45-2.36-.45-2.79-1.48-.2-.51-.13-.71-.22-1 0-.04-.02-.07-.03-.1l-.08-.17zM36.42 147.21c0-.3-1.02-1.84-1.39-1.9-.04.64.61.74-.72 1.67-1.77 1.25-3.84 3.38-5.11 1.7-1.06-1.4.59-2.22 1.71-3.03.35-.25 2.08-1.59 2.44-1.64.65-.1.51.25 1.01.32-.05-.35-1.63-2.49-2.05-3.02-.27-.36-.08-.23-.45-.31.21 1.17.31.94-.99 1.92-2.12 1.58-4.73 2.61-2.55 5.5 1.95 2.58 3.54.99 6.04-.88 1.7-1.27 1.29-.43 2.06-.33zM45.91 157.74c-.08-.4-1.46-1.65-1.64-1.73-.14.83.79.52-.49 1.79-1.53 1.52-3.24 3.93-4.8 2.49-1.35-1.25.69-2.71 1.29-3.3.31-.31 1.74-1.84 2.09-1.97.52-.19.59.15 1.01.19-.02-.39-2.68-2.88-2.88-2.97.02.84.79.62-.65 2.03-2.12 2.08-4.17 3.37-1.87 5.79 1.39 1.47 2.85 1.56 4.23 0l2.4-2.38c.59-.38.79-.03 1.31.06zM91.72 178.5c.28.56.29-.33 1.13 1.44.3.62.57 1.21.86 1.84.52 1.09.53.79.43 2.2-.15 2.13-.71.97-1.01 1.69.46.18 3.39.33 4.05.31-.11-.44.12-.09-.29-.31-.48-.26-.61-.15-.52-1.46.07-.96-.02-1.46.42-2.16.3-.47 1.41-2.48 1.82-2.75l.32-.36c-.37-.14-1.48-.16-1.88-.17.14.34.07.21.67.44.04.69-1.34 2.63-1.57 2.81-.24-.48-1.22-2.49-1.2-2.97.38-.2.43 0 .55-.34-.4-.19-3.49-.4-3.78-.21zM176.95 137.46c.34-.15.4-.57.71-1.23.4-.84 1.77-3.65 1.89-4.14-.28-.27-2.01-1.3-2.42-1.39.12.68 1.35.93 1.34 2.31-.01 1.9-1.42 1-1.96.76l-3.73-1.77c-.61-.4-.17-.81-.43-1.22-.3.14-1.13 2.2-1.34 2.64-.1.22-.7 1.25-.27 1.06.45-.2.27-.8 1.47-.25l4.17 1.95c.9.48.3.75.57 1.28zM129.4 173.4c-1.38.11-3.02.06-4.08 1.56-1.91 2.71.48 6.75 3.75 6.04 1.99-.43 3.12-2.23 2.71-2.79-.64.01-.16.39-.94 1.23-.35.38-.85.74-1.54.69-1.79-.11-3.37-4.65-1.94-5.83.43-.35 1.19-.53 1.84-.28.63.24.87.9 1.23 1.04.17-.3-.44-1.79-.63-2.17-.33.11-.15.15-.4.51zM167.71 150.06c-.36.2-.19.26-.14.72.04.36.02.71-.07 1.04-.16.57-.57 1.05-1.05 1.23-1.56.59-5.15-2.24-4.51-4.09.62-1.81 2.71-.86 3.03-.91-.09-.32-.94-.96-1.24-1.19-.21-.18-.24-.23-.49-.34-.29.49.33.43-.36.89-.83.55-1.59.93-2.13 2.23-1.75 4.25 5.11 7.44 7.04 2.88.16-.39.26-.75.27-1.22.01-.22 0-.51-.04-.73-.07-.45-.04-.41-.31-.51zM167.72 140.26c.56-.09.34-.9 1.74-.17l3.44 1.75c.84.43 1.14.41 1 1.59.4-.13.48-.56.82-1.21.27-.51.45-.86.71-1.37.31-.62 1.21-2.18 1.32-2.74-.37-.28-.76-.51-1.13-.75-.36-.22-.88-.7-1.19-.62-.12.42.59.48 1.02 1.4.39.83.13 1.53-.26 2.04-.48.28-3.99-1.72-4.88-2.18-1.15-.6-.38-.94-.74-1.4-.26.18-1.82 3.25-1.85 3.66zM55.07 173.73c.35.23 1.04-.5 1.62-.94l3.3-2.52c.8-.62.76-.76 1.99-.89-.15-.38-1.45-1.06-1.87-1.17.19 1.16 1.52.22-1.76 2.71-.3.22-.71.58-1.04.74.04-.76.38-3.58.66-4.14.63-.14.42.17.8-.02-.09-.19-3.42-2.37-3.22-1.74.08.26.22.13.28.61.06.41-.61 4.79-.74 5.74-.04.27-.09.55-.13.83l-.02.55c.09.32-.08.03.13.24zM149.13 25.16c-.41.44.14 1.39.24 1.89.25 1.13-.47 1.26-.38 1.91.05.3.32.49.47.71.2.28.24.6.43.82.51.59 1.35.21 1.7-.19 1.04-1.19 1.18-1.91.34-3.42-.65-1.18-.82-1.25-1.85-1.67-.77-.32-.77-.25-.95-.05zM94.49 153.03c-.95.48-.85 2.39-.81 3.57.04 1.12.26 3.12 1.67 2.51.92-.4.87-2.45.84-3.56-.03-.84-.21-3.27-1.7-2.52zM103.45 156.91c.04.61.12 1.32.38 1.77.27.44.9.77 1.47.31.96-.76.78-4.75.25-5.56-.27-.42-.96-.75-1.51-.28-.69.59-.64 2.7-.59 3.76zM122.22 22.42c.65-.52.72-.72.4-1.63-.4-1.11-.14-.77-.91-1.59-1.83-1.97-4.37-2.96-3.36-.37.32.82 1.36 2.62 2.11 2.88.33.11.6.15.93.3.38.18.44.33.83.41zM63.87 32.47c.79-.04.64-.48 1.57-.09.85.35.94 0 1.68-.25.76-.25 1.04-.24.73-1.34-.38-1.33-.73-1.45-2.54-1.72-.95-.14-.92-.04-1.67.31-.9.43-.42.67-.2 1.36.2.61.17 1.21.43 1.73zM137.49 25.44l1.24.23c.61-.02.16-.02.43-.11.61-.22.72.27 1.53-.24.31-.2.85-.71.71-1.18-.05-.2-.22-.29-.35-.61-.08-.22-.09-1.59-1.26-1.69-.61-.05-1.22.07-1.31.62-.15.91.14.78-.42 1.58-.27.39-.6.73-.57 1.4zM40.6 36.52c-1.16.4-1.03 1.24.14 1.98.64.4.57.28.95.91.16.26.72.93 1.02.98.73.1.22-.86.26-1.34.04-.6.59-.81.22-1.45-.48-.84-2.18-1.22-2.59-1.08zM166.3 38.01c-.55.21-1.49 1.1-1.74 1.64-.45.92 1.34 1.93 1.34 1.93.97.26 2.02-2.05 1.46-3.12-.17-.31-.69-.6-1.06-.45zM15.46 72.48c-.76-.9-2.06-.22-2.32.06-.24.26-.39.66-.65 1.01-1.25 1.64.29 1.55.52 1.46.34-.12.55-.33 1.15-.51.46-.15.76-.3.9-.75.1-.28.38-1.12.4-1.27zM82.87 9.95c-.76.31-.79.87-.67 2.05.12 1.13.74 1.07 1.91.94 1.48-.15.15-3.55-1.24-2.99z"/></g><path d="M5.54 102.08c-.35-9.96 1.41-21.43 4.42-30.74 3.39-10.44 7.68-18.54 13.93-27.2a59.28 59.28 0 0 1 2.58-3.33c1.88-2.22 3.65-4.32 5.55-6.3C48.64 17.26 72.99 6.2 97.51 5.97c13.67-.14 27.09 2.19 39.34 7.64 5.59 2.49 10.56 5.17 15.18 8.3 5.7 3.86 12.8 9.73 17.3 14.99l2.74 3.18c4.94 6.21 9.12 12.07 12.61 19.79 2.78 6.17 4.47 10.6 6.17 17.3 1.68 6.6 2.57 13.52 2.76 20.81.55 20.03-5.58 38.98-15.93 54.46-3.5 5.23-6.47 8.67-10.54 13.03-3.51 3.75-8.45 7.8-12.61 10.87-20.43 15.1-48.46 21.26-74.31 15.72-6.26-1.34-12.52-3.25-17.91-5.67-5.59-2.51-10.53-5.14-15.18-8.29-5.2-3.53-8.55-6.37-13.03-10.54l-2.87-2.94c-2.07-2.33-3.4-3.68-5.45-6.29-4.63-5.9-7.8-10.97-11.28-18.2-5.37-11.15-8.46-23.63-8.96-38.05zM96.6 2.14c-8.16.44-13.54 1.01-21.44 3.02-12.33 3.15-23.4 8.59-33.29 15.74-1.19.86-2.36 1.73-3.47 2.66-3.11 2.6-5.12 4.27-8.04 7.21-8.91 8.99-15.93 19.15-20.97 31.06-3.99 9.4-6.36 19.01-7.33 29.44-.37 4.03-.36 7.75-.34 11.85.07 12.87 4.13 28.09 9.58 39.27 2.78 5.69 5.83 10.72 9.18 15.32 2.24 3.07 3.39 4.24 5.45 6.8.42.51.96 1.12 1.43 1.58l3 3.13c.54.54 1.08 1 1.58 1.54.93 1 3.64 3.33 4.76 4.27.6.5 1.11.94 1.71 1.41 2.28 1.82 4.54 3.5 7.08 5.17 4.99 3.29 9.98 5.97 15.94 8.58 11.17 4.88 26.99 8.36 41.17 7.66 14.4-.71 26.63-3.41 39.36-9.58 11.44-5.55 19.84-11.96 28.41-20.6l3.53-3.95c.22-.27.51-.59.72-.84 2.53-2.9 4.4-5.74 6.57-8.79 3.11-4.39 6.43-11.02 8.57-15.93 5.19-11.9 8.06-26.28 7.69-41.28-.36-14.38-4.25-28.14-9.59-39.26-3.43-7.15-8.18-14.55-13.2-20.44l-2.85-3.28c-.59-.57-.92-1.09-1.5-1.62l-3.07-3.05c-.91-1.02-5.15-4.6-6.48-5.67-2.27-1.83-4.57-3.5-7.09-5.17-4.9-3.25-10.05-6.04-15.93-8.58-11.96-5.15-27.76-8.39-41.14-7.67z" fill="#1691b3"/><path d="M48.69 78.3c0 1.03-.14 4.89.2 5.59.22-.17.23-.28.27-.67v-5.68c-.05-.44-.01-.47-.27-.68-.19.39-.2.91-.2 1.44z" fill="#fcfdfe"/></g></g></svg>